<svg width="221" height="98" viewBox="0 0 221 98" fill="none" xmlns="http://www.w3.org/2000/svg">
<path d="M0.00844229 68.2934H1.83466V63.8497H0.0253475V61.966H5.69844V63.8497H3.82151V68.2934H5.56316V70.161H3.82151V74.6047C4.46407 74.5081 5.12353 74.4115 5.78299 74.2826V76.1825C4.24424 76.5045 2.31658 76.7299 0 76.8909V74.9106C0.608737 74.8945 1.23438 74.8784 1.86003 74.8301V70.161H0.0338105L0.0169052 68.2934H0.00844229ZM6.18036 67.3274H18V69.1306H12.6736C12.5214 69.4848 12.3861 69.8229 12.2508 70.1127H15.5143C16.6304 70.3059 17.3405 70.8694 17.6449 71.8193C17.814 72.3023 17.9154 73.2039 17.9324 74.5242C17.9324 75.3614 17.8985 76.0215 17.8478 76.5045C17.5942 77.9535 16.9516 78.7424 15.9371 78.8551C15.2212 78.8764 14.5053 78.8115 13.8065 78.6619V78.3399H12.8934V71.7871H11.5406V78.3399H9.81587V71.7871H8.46312V79H6.56928V70.1288H10.0695C10.1879 69.8068 10.3232 69.4848 10.4753 69.1467H6.18036V67.3274ZM10.8981 61H12.9103V64.7513H15.0409C15.2776 64.7513 15.396 64.6708 15.396 64.5098V61.3864H17.3744V64.9928C17.3744 65.9589 16.7656 66.4419 15.5481 66.4741H8.24331C7.3133 66.4419 6.75529 65.9589 6.55237 65.0089V61.3864H8.44621V64.3971C8.43808 64.4454 8.44208 64.4948 8.4579 64.5413C8.47371 64.5879 8.50089 64.6301 8.5372 64.6647C8.57351 64.6993 8.61792 64.7252 8.66677 64.7402C8.71562 64.7553 8.76751 64.7591 8.81821 64.7513H10.8812L10.8981 61ZM14.635 77.068C14.8379 77.0841 15.024 77.1002 15.21 77.1002C15.582 77.068 15.8187 76.8104 15.9032 76.3113C15.9762 75.7397 16.01 75.1643 16.0047 74.5886C16.022 73.9467 15.9711 73.3047 15.8525 72.6726C15.8187 72.0769 15.4805 71.771 14.8718 71.771H14.635V77.068Z" fill="#4C4C4C"/>
<path d="M29.414 64.7593V66.5672C28.8695 66.6306 28.293 66.694 27.7004 66.7416V69.2472H30.3269V64.4897H32.2247V69.2472H32.7372C33.8742 69.2472 34.723 69.4375 35.2836 69.834C35.8601 70.1828 36.1964 70.7854 36.2765 71.6101V71.6259C37.1604 71.1275 38.1449 70.8296 39.1592 70.7537V72.4981C38.1909 72.59 37.247 72.8532 36.3726 73.2752C36.3701 73.3026 36.3756 73.3301 36.3886 73.3545C37.3372 73.4237 38.2763 73.5884 39.1912 73.8461V75.7174C38.3962 75.4067 37.5691 75.1834 36.7249 75.0513C37.1413 76.2565 37.8139 76.8591 38.7588 76.8591C39.1112 76.8274 39.4955 76.7799 39.9279 76.764L39.9439 78.5084C39.3674 78.556 38.8549 78.5877 38.4065 78.5877C35.9402 78.5877 34.6269 76.4785 34.4668 72.2603C34.36 71.4356 33.8635 71.0233 32.9774 71.0233H32.1927V79H30.3029V71.0233H27.6764V71.2453C27.5643 75.1782 26.155 77.7313 23.4965 78.9207L23.4805 76.764C25.0019 75.9711 25.7866 74.0681 25.8347 71.0233H23L23.016 69.2631H25.8186V66.916C25.098 66.9478 24.3613 66.9953 23.5925 67.0271V65.2192C25.5413 65.1954 27.4861 65.0417 29.414 64.7593ZM23.8568 62H32.8893C33.9783 62 34.8111 62.1903 35.3877 62.5868C35.6847 62.774 35.9188 63.0445 36.0603 63.3638C37.0212 62.9356 38.0462 62.5392 39.1352 62.1427V63.9981C38.2383 64.2836 37.3095 64.6166 36.3806 64.9813V65.0606C37.3196 65.1285 38.2515 65.2717 39.1672 65.4888V67.2491C38.3624 66.9919 37.5374 66.801 36.7009 66.6782C37.0852 67.8041 37.7899 68.375 38.8149 68.3909C39.1672 68.3591 39.5676 68.3433 39.984 68.3116L40 69.9767C39.4235 70.0084 38.927 70.0401 38.4786 70.0401C36.0443 70.0401 34.7471 68.3591 34.5709 64.9813C34.4908 64.1726 34.0104 63.7603 33.1295 63.7603H23.8248L23.8568 62Z" fill="#4C4C4C"/>
<path d="M48.6124 63.4986H47.2072C46.5504 64.2548 45.8325 64.7479 45.0382 64.9288L45.0229 62.9233C45.7714 62.7041 46.3976 62.063 46.9017 61L48.6888 61.0164C48.5719 61.2988 48.4393 61.5733 48.2917 61.8384H53.2253V63.4986H50.3995V64.9945C50.4024 65.1098 50.3973 65.2252 50.3842 65.3397H53.4239V67.0164H50.2926C50.7661 67.8055 51.7742 68.4137 53.3475 68.8411V70.863C51.5604 70.2548 50.2162 69.4 49.3303 68.3315C48.4444 69.5315 47.0239 70.4849 45.0535 71.1918V69.1205C46.4587 68.5945 47.4363 67.8877 48.0014 67.0164H45V65.3397H48.5895C48.6018 65.2472 48.6069 65.1537 48.6048 65.0603L48.62 63.4986H48.6124ZM56.8148 71.389C59.1823 71.4548 60.3738 72.7534 60.3738 75.2521C60.3738 77.5534 59.3504 78.8027 57.2883 79L46.2449 78.9836V71.389H56.8148ZM48.0778 74.3808H58.3422C58.1284 73.5589 57.6091 73.1479 56.7843 73.1479H48.0778V74.3808ZM48.0778 77.1589L56.937 77.1753C57.6854 77.1589 58.1437 76.7808 58.327 76.0247H48.0778V77.1589ZM58.2048 61.8055C58.6274 61.8204 59.0395 61.9504 59.4028 62.1832C59.7661 62.4161 60.0686 62.7442 60.2821 63.137C60.7709 63.8932 61 64.9945 61 66.4247C61 67.7726 60.7709 68.7918 60.2974 69.4986C59.8391 70.2548 59.1671 70.6658 58.2659 70.7315H54.0807V61.8055H58.2048ZM55.8525 69.0055H57.9298C58.1465 68.9926 58.3557 68.9151 58.5337 68.7815C58.7118 68.648 58.8517 68.4637 58.9379 68.2493C59.1671 67.8055 59.274 67.2137 59.274 66.5069C59.274 65.6521 59.1518 64.9452 58.9074 64.4192C58.663 63.8932 58.2964 63.5808 57.8382 63.4986H55.8449V69.0055H55.8525Z" fill="#4C4C4C"/>
<path d="M68.7663 68.321H82.1854C83.7748 68.3846 84.6774 69.069 84.8931 70.374H85.8638V71.679H84.8761C84.6036 72.9682 83.7521 73.6684 82.2876 73.7639H68.6812V72.3316H81.7938C82.4238 72.3316 82.8325 72.1088 83.0028 71.679H68V70.374H82.9858C82.7644 70.008 82.3387 69.7851 81.7086 69.7215H68.7663V68.321ZM69.5837 74.3528H71.4059C71.3548 76.4854 70.2138 78.0292 68.017 79L68.0341 76.9151C69.0558 76.2944 69.5837 75.435 69.5837 74.3528ZM68.2384 61.7321H71.4399V61H73.5005V61.7321H76.5147V63.0531H73.5005V63.7215H76.3784V65.0424H73.5005V65.695L76.5487 65.6154V67L73.5005 67.0796V67.7321H71.4399V67.1432L68.0851 67.2387V65.8541L71.4399 65.7586V65.0424H68.3746V63.7374H71.4399V63.069H68.2384V61.7321ZM72.8363 74.4324H74.8117C74.7947 74.8143 74.7947 75.2759 74.7947 75.8011C74.8117 76.4536 75.578 76.7878 77.0766 76.7878C79.2734 76.7878 81.1126 76.7401 82.5601 76.6446V78.3793C80.5336 78.443 78.3879 78.4748 76.1571 78.4748C73.9262 78.4748 72.8193 77.5199 72.7852 75.626C72.8193 75.1645 72.8363 74.7666 72.8363 74.4324ZM77.1788 74.3528H79.2904C79.6016 74.9691 79.8413 75.6146 80.0057 76.2785H77.9281C77.8113 75.598 77.557 74.9445 77.1788 74.3528ZM77.2469 65.7427H80.2356V65.0424H77.3917V63.7215H80.2356V63.069H77.2554V61.748H80.2356V61H82.2961V61.748H85.7361V63.069H82.2961V63.7215H85.5317V65.0424H82.2961V65.7427H85.7871V67.0955H82.2961V67.7639H80.2356V67.0796H77.2554L77.2469 65.7427ZM82.1003 74.3528H84.28C85.0204 75.6607 85.5975 77.0438 86 78.4748L83.8203 78.4589C83.4467 77.0254 82.8712 75.6447 82.1088 74.3528H82.1003Z" fill="#4C4C4C"/>
<path d="M91 77.2755H94.119V74.5657H96.0226V77.292H98.6912V73.7445H91.7054V72.1022H108.414V73.7445H100.629V74.6971H107.666V76.3066H100.629V77.2591H108.958V79H91.0085L91 77.2755ZM91.17 61.8047H94.8074V61H96.694V61.8047H100.246V63.3814H96.694V64.104H97.7139C98.3061 64.1176 98.8758 64.3262 99.3286 64.6953C99.5498 64.859 99.728 65.0706 99.8491 65.3131C99.9701 65.5555 100.031 65.8221 100.025 66.0912C100.025 66.781 99.8385 67.323 99.4476 67.6843C99.286 67.8731 99.0827 68.0247 98.8527 68.1277C99.0239 68.7377 99.4159 69.268 99.9575 69.6223V71.6916C98.5977 70.969 97.7139 69.8522 97.289 68.3412H96.694V71.5766H94.8074V68.3248H94.2125C93.9405 69.8029 93.0227 70.9197 91.4419 71.6588L91.4589 69.7537C92.0878 69.3595 92.4787 68.8832 92.6487 68.3248H91.7394V64.0876H94.7989V63.365H91.1615V61.8047H91.17ZM94.8074 65.5H93.5666V66.8467H94.8074V65.5ZM96.694 66.8631H97.5269C98.0368 66.8631 98.2918 66.6332 98.2918 66.1734C98.2918 65.7464 97.9858 65.5328 97.3569 65.5164H96.694V66.8631ZM102.048 61.0328H104.037C103.901 61.4763 103.765 61.8869 103.629 62.281H108.745V63.9398H107.895C107.623 65.5657 107.045 66.9453 106.144 68.1113C107 68.8364 107.962 69.4342 109 69.885V71.8066C107.3 71.3467 105.889 70.5748 104.768 69.4745C103.646 70.3942 102.235 71.1168 100.552 71.6423V69.7208C101.637 69.3337 102.644 68.7668 103.527 68.0456C102.932 67.1858 102.446 66.2593 102.082 65.2865C101.67 65.8777 101.172 66.4086 100.603 66.8631V64.3504C101.215 63.7099 101.691 62.5931 102.048 61.0328ZM103.476 63.9398C103.737 64.9421 104.199 65.8852 104.836 66.7153C105.437 65.8903 105.828 64.939 105.974 63.9398H103.476Z" fill="#4C4C4C"/>
<path d="M115.376 68.5127C114.671 69.2604 113.871 69.8958 113 70.3994V68.0368C114.594 66.881 116.046 64.5354 117.357 61H124.886C125.454 61 126.054 61.4929 126.717 62.4788C127.697 64.3144 128.794 66.075 130 67.7479V70.7904C129.59 70.4334 128.99 69.6856 128.201 68.5297L115.383 68.5127H115.376ZM125.857 70.6544C128.224 70.7394 129.408 72.1501 129.408 74.9037C129.408 77.4363 128.382 78.813 126.346 79H114.823V70.6374H125.857V70.6544ZM116.717 76.9943L125.967 77.0113C126.946 76.9943 127.435 76.2465 127.435 74.7677C127.435 73.289 126.898 72.5411 125.809 72.5411H116.717V76.9943ZM126.851 66.5071C126.409 65.8102 125.92 65.0283 125.415 64.1785C124.988 63.3456 124.404 62.9377 123.694 62.9377H118.769C118.255 64.1816 117.642 65.3757 116.938 66.5071H126.851Z" fill="#4C4C4C"/>
<path d="M137 62.715H143.248C143.474 62.1659 143.637 61.5901 143.734 61L145.645 61.016C145.55 61.5961 145.403 62.1651 145.205 62.715H153V64.6866H144.355C143.921 65.455 143.408 66.17 142.824 66.8183H148.64C150.733 67.0908 151.794 68.3571 151.825 70.6492C151.9 71.4666 151.931 72.4443 151.931 73.5663C151.929 74.0589 151.904 74.5511 151.855 75.041C151.764 77.4292 150.718 78.6634 148.7 78.7435C147.609 78.7435 146.592 78.7115 145.682 78.6634V76.8362C146.608 76.8842 147.593 76.9163 148.67 76.9163C149.413 76.9163 149.838 76.4675 149.959 75.5859H141.83V79H140.056L140.041 69.2066C139.078 69.8266 138.068 70.3627 137.023 70.8094V68.5494C139.267 67.4595 140.966 66.1772 142.103 64.7026H137.008V62.715H137ZM149.876 70.3927C149.785 69.2867 149.3 68.6937 148.405 68.6135H141.838V70.3927H149.876ZM141.838 72.1077V73.8388H150.088V73.2939C150.088 72.8771 150.073 72.4764 150.058 72.0917H141.838V72.1077Z" fill="#4C4C4C"/>
<path d="M164.21 61.0493C165.428 61.0821 166.03 61.7555 166.03 63.0529C165.953 64.3011 165.428 65.615 164.441 66.9781C165.521 69.5566 166.122 71.7901 166.261 73.6953C166.261 75.8631 165.475 76.9471 163.902 76.9471H162.36V75.1734H163.794C164.349 75.1405 164.627 74.6971 164.627 73.8266C164.241 71.4453 163.584 69.1233 162.668 66.9124C163.239 66.3212 163.763 65.0894 164.241 63.25C164.241 62.9708 164.087 62.7901 163.763 62.7245H161.743V79H160V61.0493H164.21ZM171.844 61C172.939 61.0821 173.772 61.5748 174.358 62.4781C174.928 63.2336 175.221 64.2847 175.221 65.5821C175.19 67.0274 174.882 68.1277 174.311 68.8996C173.741 69.6715 172.954 70.0985 171.875 70.1478H171.481C171.664 70.7629 171.88 71.3661 172.129 71.9544C173.227 71.1494 174.502 70.6626 175.83 70.542V72.2993C174.799 72.442 173.809 72.8231 172.931 73.4161C173.734 74.655 174.781 75.692 176 76.4544V78.3923C172.885 77.188 170.793 74.4398 169.723 70.1478H168.567V75.5511C168.628 76.3066 168.983 76.7172 169.646 76.8157C170.593 76.8251 171.536 76.7036 172.453 76.4544V78.3595C171.697 78.5894 170.649 78.7044 169.292 78.7044C167.811 78.5566 166.978 77.5712 166.793 75.7646V61H171.844ZM168.59 62.7573V64.6953H173.355C173.17 63.5949 172.584 62.938 171.628 62.7573H168.59ZM173.278 66.4526H168.574V68.3741H171.227C172.337 68.2755 173.031 67.635 173.278 66.4526Z" fill="#4C4C4C"/>
<path d="M185.741 61H187.724C186.597 65.4363 184.689 68.6997 182 70.7904V68.1728C183.653 66.4561 184.907 64.0765 185.741 61ZM188.61 67.272H190.879L185.621 76.5014C185.621 76.7904 185.771 76.9263 186.056 76.9433H193.733C194.124 76.8754 194.319 76.5694 194.319 76.0595V73.085H196.242V76.9943C196.182 78.2011 195.506 78.881 194.229 79H184.208C183.623 78.966 183.217 78.5241 182.992 77.7082C183.007 77.3822 183.068 77.0609 183.172 76.7564L188.61 67.272ZM192.471 61.051C193.523 61.187 194.424 61.8159 195.176 62.9207C196.277 65.6402 197.219 68.2408 198 70.7224H195.792C195.116 68.4788 194.394 66.2351 193.628 63.9915C193.208 63.3286 192.712 63.0057 192.126 63.0057H188.31V61.068H192.471V61.051Z" fill="#4C4C4C"/>
<path d="M205 64.8946H217.416V66.9436H205V64.8946ZM205.283 61H215.955C217.071 61.0169 218.014 61.3217 218.768 61.9313C219.516 62.4826 220.096 63.2604 220.434 64.1665C220.811 65.4083 221 67.508 221 70.4657C221 72.3283 220.906 73.7168 220.733 74.6312C220.576 75.952 220.136 77.0188 219.397 77.8147C218.517 78.5767 217.605 78.9661 216.678 79C214.509 79 212.859 78.9492 211.727 78.8476V76.7987C212.796 76.9003 214.305 76.9511 216.269 76.9511C216.851 76.9172 217.385 76.6463 217.919 76.1722C218.399 75.6917 218.705 75.0438 218.784 74.3434C218.913 73.0045 218.979 71.6594 218.98 70.3133C218.98 67.9595 218.886 66.2324 218.682 65.1656C218.367 63.8617 217.377 63.1336 215.711 62.9812H205.259L205.283 61ZM213.519 68.5353C214.54 68.6538 215.31 69.0094 215.86 69.6359C216.442 70.1778 216.741 70.9398 216.756 71.9389C216.756 73.0564 216.489 73.8862 215.955 74.4619C215.655 74.8049 215.295 75.0803 214.896 75.2722C214.496 75.464 214.066 75.5685 213.629 75.5795H205.974V68.5353H213.519ZM207.876 73.683L213.079 73.666C214.257 73.6322 214.886 73.0395 214.949 71.9219C214.87 70.9737 214.367 70.4487 213.424 70.3133H207.876V73.683Z" fill="#4C4C4C"/>
<path d="M6.57215 95L4.11692 90.7659H2.28856V95H1V85H4.16915C6.22388 85 7.70399 85.7229 7.70399 87.8055C7.70399 89.3546 6.7985 90.284 5.40547 90.611L8 94.9828L6.57215 95ZM2.28856 89.7332H3.97761C5.56219 89.7332 6.43283 89.1136 6.43283 87.8055C6.43283 86.4974 5.56219 86.0155 3.97761 86.0155H2.28856V89.7332Z" fill="#7A7A7A"/>
<path d="M9 91.5155C9 89.3628 10.2877 88 11.6575 88C13.1507 88 14 89.2235 14 91.1283C13.9962 91.3406 13.9825 91.5526 13.9589 91.7633H9.98629C10.0548 93.188 10.8219 94.1018 11.9452 94.1018C12.4742 94.1003 12.9903 93.9166 13.4246 93.5752L13.7808 94.3186C13.2036 94.764 12.5207 95.0015 11.8219 95C10.2603 95 9 93.7146 9 91.5155ZM13.137 90.9734C13.137 89.6261 12.589 88.8982 11.6712 88.8982C10.8356 88.8982 10.0959 89.6571 9.9726 90.9734H13.137Z" fill="#7A7A7A"/>
<path d="M17 88H18.148L19.3878 91.9884C19.5867 92.6721 19.801 93.3884 20 94.0558H20.0459C20.2449 93.4046 20.4592 92.6721 20.6582 91.9884L21.9133 88H23L20.6582 95H19.3725L17 88Z" fill="#7A7A7A"/>
<path d="M24 85.7667C24 85.2936 24.63 85 25.5 85C26.37 85 27 85.2773 27 85.7667C27 85.8716 26.9604 85.9753 26.8838 86.0716C26.8073 86.1679 26.6953 86.2546 26.5548 86.3264C26.4142 86.3982 26.2481 86.4536 26.0667 86.4893C25.8853 86.5249 25.6925 86.5399 25.5 86.5334C25.3081 86.5385 25.1163 86.5225 24.936 86.4864C24.7558 86.4502 24.5907 86.3947 24.4507 86.3232C24.3108 86.2516 24.1987 86.1655 24.1213 86.0699C24.0438 85.9743 24.0026 85.8712 24 85.7667ZM24.42 87.9853H26.58V95H24.42V87.9853Z" fill="#7A7A7A"/>
<path d="M28 88H29.148L30.3878 91.9884C30.5867 92.6721 30.801 93.3884 31 94.0558H31.0459C31.2449 93.4046 31.4592 92.6721 31.6582 91.9884L32.9133 88H34L31.6582 95H30.3725L28 88Z" fill="#7A7A7A"/>
<path d="M36 93.1106C36 91.6549 37.2166 90.9425 39.9318 90.6173C39.9318 89.7655 39.6647 88.9292 38.6113 88.9292C37.8694 88.9292 37.2018 89.2854 36.6973 89.6416L36.2671 88.8673C36.8605 88.4801 37.7656 88 38.7893 88C40.3472 88 41 89.0996 41 90.7412V94.8451H40.1246L40.0356 94.0398H40.0059C39.3976 94.5664 38.6706 95 37.8843 95C36.8086 95 36 94.3186 36 93.1106ZM39.9318 93.219V91.3606C37.7804 91.6239 37.0534 92.1814 37.0534 93.0487C37.0534 93.8075 37.543 94.1173 38.181 94.1173C38.819 94.1173 39.3086 93.8075 39.9318 93.219Z" fill="#7A7A7A"/>
<path d="M42 93.3654V84H43.8305V93.4513C43.8305 93.8294 44.0847 93.984 44.3644 93.984C44.4934 93.9857 44.622 93.9741 44.7458 93.9496L45 94.8948C44.6569 94.9743 44.2946 95.0093 43.9322 94.9979C42.572 94.9979 42 94.4136 42 93.3654Z" fill="#7A7A7A"/>
<path d="M51 93.5572L51.7681 92.728C52.129 93.0951 52.5636 93.3898 53.0463 93.5948C53.529 93.7999 54.05 93.9111 54.5786 93.9221C55.9052 93.9221 56.7082 93.2919 56.7082 92.3466C56.7082 91.3682 55.9751 91.0531 55.015 90.6385L53.5486 90.0415C52.606 89.6601 51.4888 88.9801 51.4888 87.5705C51.4888 86.078 52.8504 85 54.6833 85C55.2399 84.9975 55.7913 85.102 56.3043 85.3072C56.8173 85.5124 57.2812 85.8141 57.6683 86.1941L56.9875 86.9735C56.3591 86.4262 55.6259 86.0614 54.6833 86.0614C53.5312 86.0614 52.7805 86.6087 52.7805 87.4876C52.7805 88.4163 53.6708 88.7811 54.4563 89.0962L55.9052 89.6932C57.0748 90.1742 58 90.8375 58 92.2637C58 93.7894 56.6733 95 54.5611 95C53.8958 95.0001 53.2373 94.8723 52.6253 94.6243C52.0134 94.3764 51.4605 94.0134 51 93.5572Z" fill="#7A7A7A"/>
<path d="M60 88.1742H60.8955L60.9865 89.1719H61.0169C61.5784 88.5226 62.2614 88 63.0506 88C64.0523 88 64.5835 88.5068 64.8567 89.2986C65.5245 88.5385 66.2226 88 67.0118 88C68.3626 88 69 88.9344 69 90.6765V95H67.9224V90.8348C67.9224 89.552 67.543 89.0136 66.7083 89.0136C66.2074 89.0136 65.6762 89.3462 65.054 90.0588V95H63.9612V90.8348C63.9612 89.552 63.5818 89.0136 62.747 89.0136C62.2614 89.0136 61.6998 89.3462 61.0927 90.0588V95H60V88.1742Z" fill="#7A7A7A"/>
<path d="M72 93.1106C72 91.6549 73.4599 90.9425 76.7181 90.6173C76.7181 89.7655 76.3976 88.9292 75.1335 88.9292C74.2433 88.9292 73.4421 89.2854 72.8368 89.6416L72.3205 88.8673C73.0326 88.4801 74.1187 88 75.3472 88C77.2166 88 78 89.0996 78 90.7412V94.8451H76.9317L76.8249 94.0398H76.7893C76.0594 94.5664 75.1869 95 74.2433 95C72.9614 95 72 94.3186 72 93.1106ZM76.7181 93.219V91.3606C74.1365 91.6239 73.2641 92.1814 73.2641 93.0487C73.2641 93.8075 73.8516 94.1173 74.6172 94.1173C75.3828 94.1173 75.9703 93.8075 76.7181 93.219Z" fill="#7A7A7A"/>
<path d="M81.0127 88.193H81.7627L81.839 89.4278H81.8644C82.2458 88.5571 82.8051 88.0031 83.4153 88.0031C83.6183 87.9859 83.821 88.0408 84 88.1614L83.8348 89.1587C83.6658 89.0721 83.4832 89.0342 83.3008 89.0479C82.8432 89.0479 82.2839 89.4436 81.9152 90.6151V95H81V88.193H81.0127Z" fill="#7A7A7A"/>
<path d="M86.9606 92.451V88.1907H86V87.2103L87.0056 87.139L87.1407 85H88.0413V87.139H89.8049V88.1907H88.0488V92.4688C88.0488 93.4135 88.3039 93.9483 89.0544 93.9483C89.3065 93.9276 89.5545 93.8615 89.7899 93.7522L90 94.7148C89.6189 94.8796 89.2193 94.9757 88.8143 95C87.4259 95 86.9606 93.984 86.9606 92.451Z" fill="#7A7A7A"/>
<path d="M95 85H96V95H95V85Z" fill="#7A7A7A"/>
<path d="M100.017 88.1742H101.047L101.151 89.1561H101.186C101.901 88.5226 102.686 88 103.698 88C105.267 88 106 88.9344 106 90.6765V95H104.744V90.8348C104.744 89.552 104.308 89.0136 103.314 89.0136C102.546 89.0136 102.023 89.362 101.256 90.0588V95H100L100.017 88.1742Z" fill="#7A7A7A"/>
<path d="M107.962 92.451V88.1907H107V87.2103L108.008 87.139L108.143 85H109.045V87.139H110.805V88.1907H109.045V92.4688C109.045 93.4135 109.301 93.9483 110.053 93.9483C110.305 93.9276 110.554 93.8615 110.789 93.7522L111 94.7148C110.618 94.8796 110.218 94.9757 109.812 95C108.429 95 107.962 93.984 107.962 92.451Z" fill="#7A7A7A"/>
<path d="M111 91.5155C111 89.3628 112.803 88 114.721 88C116.811 88 118 89.2235 118 91.1283C117.995 91.3406 117.976 91.5526 117.942 91.7633H112.381C112.477 93.188 113.551 94.1018 115.123 94.1018C115.864 94.1003 116.586 93.9166 117.194 93.5752L117.693 94.3186C116.885 94.764 115.929 95.0015 114.951 95C112.764 95 111 93.7146 111 91.5155ZM116.792 90.9734C116.792 89.6261 116.025 88.8982 114.74 88.8982C113.57 88.8982 112.534 89.6571 112.362 90.9734H116.792Z" fill="#7A7A7A"/>
<path d="M120 96.1875C120 95.625 120.425 95.0781 121.134 94.6719V94.625C120.91 94.5168 120.725 94.3555 120.6 94.1595C120.475 93.9635 120.414 93.7404 120.425 93.5156C120.425 92.9531 120.886 92.5156 121.276 92.2656V92.2188C120.968 92.0011 120.718 91.7254 120.547 91.4117C120.375 91.0981 120.285 90.7545 120.284 90.4062C120.284 88.9375 121.613 88 123.154 88C123.517 88.0062 123.876 88.0642 124.218 88.1719H126.876V89.0313H125.316C125.52 89.2146 125.68 89.4322 125.787 89.6711C125.893 89.91 125.944 90.1653 125.937 90.4219C125.937 91.8594 124.696 92.7656 123.154 92.7656C122.762 92.7585 122.375 92.6786 122.02 92.5312C121.869 92.6214 121.745 92.7424 121.659 92.8838C121.573 93.0253 121.526 93.1831 121.524 93.3438C121.524 93.7813 121.825 94.0781 122.853 94.0781H124.342C126.114 94.0781 127 94.5781 127 95.6719C127 96.9219 125.511 98 123.154 98C121.294 97.9844 120 97.3437 120 96.1875ZM125.777 95.8281C125.777 95.2031 125.228 95 124.218 95H122.906C122.578 94.9993 122.25 94.9625 121.932 94.8906C121.382 95.2344 121.152 95.6406 121.152 96.0312C121.152 96.75 121.985 97.2188 123.367 97.2188C124.803 97.2188 125.777 96.5469 125.777 95.8281ZM124.785 90.3906C124.785 89.4062 124.076 88.8125 123.172 88.8125C122.268 88.8125 121.542 89.3906 121.542 90.3906C121.542 91.3906 122.295 91.9844 123.181 91.9844C124.067 91.9844 124.785 91.375 124.785 90.3906Z" fill="#7A7A7A"/>
<path d="M128.021 88.193H129.271L129.398 89.4278H129.441C130.076 88.5571 131.008 88.0031 132.025 88.0031C132.364 87.9859 132.702 88.0408 133 88.1614L132.725 89.1587C132.443 89.0721 132.139 89.0342 131.835 89.0479C131.072 89.0479 130.14 89.4436 129.525 90.6151V95H128V88.193H128.021Z" fill="#7A7A7A"/>
<path d="M133 93.1106C133 91.6549 134.46 90.9425 137.718 90.6173C137.718 89.7655 137.398 88.9292 136.134 88.9292C135.243 88.9292 134.442 89.2854 133.837 89.6416L133.32 88.8673C134.033 88.4801 135.119 88 136.347 88C138.217 88 139 89.0996 139 90.7412V94.8451H137.95L137.843 94.0398H137.807C137.077 94.5664 136.205 95 135.261 95C133.961 95 133 94.3186 133 93.1106ZM137.718 93.219V91.3606C135.137 91.6239 134.264 92.1814 134.264 93.0487C134.264 93.8075 134.852 94.1173 135.617 94.1173C136.383 94.1173 136.97 93.8075 137.727 93.219H137.718Z" fill="#7A7A7A"/>
<path d="M142.203 92.451V88.1907H141V87.2103L142.259 87.139L142.429 85H143.556V87.139H145.756V88.1907H143.556V92.4688C143.556 93.4135 143.876 93.9483 144.816 93.9483C145.132 93.9276 145.442 93.8615 145.737 93.7522L146 94.7148C145.523 94.8796 145.022 94.9757 144.515 95C142.786 95 142.203 93.984 142.203 92.451Z" fill="#7A7A7A"/>
<path d="M147 85.7667C147 85.2936 147.42 85 148 85C148.58 85 149 85.2773 149 85.7667C149 85.983 148.895 86.1905 148.707 86.3435C148.52 86.4964 148.265 86.5824 148 86.5824C147.735 86.5824 147.48 86.4964 147.293 86.3435C147.105 86.1905 147 85.983 147 85.7667ZM147.26 87.9853H148.7V95H147.26V87.9853Z" fill="#7A7A7A"/>
<path d="M151 91.5155C151 89.3009 152.41 88 154 88C155.59 88 157 89.2854 157 91.5155C157 93.7456 155.59 95 154 95C152.41 95 151 93.7301 151 91.5155ZM155.875 91.5155C155.875 89.9823 155.11 88.9447 154 88.9447C152.89 88.9447 152.14 89.9823 152.14 91.5155C152.14 93.0487 152.89 94.0708 154 94.0708C155.11 94.0708 155.875 93.0487 155.875 91.5155Z" fill="#7A7A7A"/>
<path d="M160.017 88.1742H161.047L161.151 89.1561H161.186C161.901 88.5226 162.686 88 163.698 88C165.267 88 166 88.9344 166 90.6765V95H164.744V90.8348C164.744 89.552 164.308 89.0136 163.314 89.0136C162.547 89.0136 162.006 89.362 161.256 90.0588V95H160L160.017 88.1742Z" fill="#7A7A7A"/>
<path d="M171 90.008C171 86.8905 173.042 85 175.789 85C176.347 85.0022 176.899 85.1096 177.407 85.3154C177.916 85.5211 178.37 85.8205 178.74 86.194L177.998 86.9899C177.722 86.7072 177.383 86.4797 177.003 86.3225C176.622 86.1653 176.208 86.082 175.789 86.0779C173.747 86.0779 172.392 87.5704 172.392 89.9749C172.392 92.4126 173.691 93.9382 175.752 93.9382C176.773 93.9382 177.552 93.5236 178.258 92.8603L179 93.6231C178.602 94.0612 178.098 94.4128 177.525 94.6512C176.953 94.8897 176.328 95.0088 175.696 94.9995C173.005 94.9829 171 93.1422 171 90.008Z" fill="#7A7A7A"/>
<path d="M180 91.5155C180 89.3009 181.645 88 183.5 88C185.355 88 187 89.2854 187 91.5155C187 93.7456 185.355 95 183.5 95C181.645 95 180 93.7301 180 91.5155ZM185.688 91.5155C185.688 89.9823 184.795 88.9447 183.5 88.9447C182.205 88.9447 181.33 89.9823 181.33 91.5155C181.33 93.0487 182.205 94.0708 183.5 94.0708C184.795 94.0708 185.688 93.0487 185.688 91.5155Z" fill="#7A7A7A"/>
<path d="M188.001 94.0093C187.994 93.8817 188.024 93.7543 188.09 93.6345C188.157 93.5147 188.258 93.4049 188.388 93.3113C188.519 93.2177 188.676 93.1422 188.85 93.0891C189.024 93.0361 189.212 93.0065 189.404 93.0021C189.703 92.9891 190.001 93.0364 190.26 93.1378C190.519 93.2392 190.726 93.39 190.855 93.5708C190.984 93.7516 191.028 93.954 190.983 94.1518C190.937 94.3496 190.804 94.5338 190.599 94.6805C190.395 94.8271 190.13 94.9295 189.837 94.9745C189.545 95.0194 189.239 95.0048 188.959 94.9325C188.679 94.8602 188.438 94.7336 188.267 94.569C188.097 94.4044 188.004 94.2094 188.001 94.0093Z" fill="#7A7A7A"/>
<path d="M193 96.3175C193.368 95.9841 193.586 95.381 193.594 94.6032C193.572 94.6163 193.549 94.6216 193.526 94.619C193.316 94.619 193.128 94.3492 193.128 93.8095C193.128 93.3175 193.316 93 193.541 93C193.827 93 194 93.5079 194 94.3651C194 95.5714 193.669 96.5238 193.128 97L193 96.3175Z" fill="#7A7A7A"/>
<path d="M201 85H202.352V93.9157H207V95H201.027V85H201Z" fill="#7A7A7A"/>
<path d="M208.201 92.451V88.1907H207V87.2103L208.257 87.139L208.426 85H209.552V87.139H211.747V88.1907H209.561V92.4688C209.561 93.4135 209.88 93.9483 210.818 93.9483C211.133 93.9276 211.443 93.8615 211.737 93.7522L212 94.7148C211.524 94.8796 211.024 94.9757 210.518 95C208.782 95 208.201 93.984 208.201 92.451Z" fill="#7A7A7A"/>
<path d="M214 91.1388C214 88.7535 215.408 87.2434 216.976 87.2434C217.792 87.2434 218.304 87.5694 218.912 88.1186L218.848 86.8487V84H220V94.8284H219.056L218.944 93.9532H218.912C218.368 94.5195 217.648 95 216.816 95C215.104 95 214 93.61 214 91.1388ZM218.848 92.9579V89.0796C218.272 88.5304 217.744 88.3073 217.168 88.3073C216.048 88.3073 215.184 89.4571 215.184 91.1388C215.184 92.9236 215.872 93.9875 217.088 93.9875C217.728 93.9704 218.272 93.6271 218.848 92.9579Z" fill="#7A7A7A"/>
<path d="M0.00844229 68.2934H1.83466V63.8497H0.0253475V61.966H5.69844V63.8497H3.82151V68.2934H5.56316V70.161H3.82151V74.6047C4.46407 74.5081 5.12353 74.4115 5.78299 74.2826V76.1825C4.24424 76.5045 2.31658 76.7299 0 76.8909V74.9106C0.608737 74.8945 1.23438 74.8784 1.86003 74.8301V70.161H0.0338105L0.0169052 68.2934H0.00844229ZM6.18036 67.3274H18V69.1306H12.6736C12.5214 69.4848 12.3861 69.8229 12.2508 70.1127H15.5143C16.6304 70.3059 17.3405 70.8694 17.6449 71.8193C17.814 72.3023 17.9154 73.2039 17.9324 74.5242C17.9324 75.3614 17.8985 76.0215 17.8478 76.5045C17.5942 77.9535 16.9516 78.7424 15.9371 78.8551C15.2212 78.8764 14.5053 78.8115 13.8065 78.6619V78.3399H12.8934V71.7871H11.5406V78.3399H9.81587V71.7871H8.46312V79H6.56928V70.1288H10.0695C10.1879 69.8068 10.3232 69.4848 10.4753 69.1467H6.18036V67.3274ZM10.8981 61H12.9103V64.7513H15.0409C15.2776 64.7513 15.396 64.6708 15.396 64.5098V61.3864H17.3744V64.9928C17.3744 65.9589 16.7656 66.4419 15.5481 66.4741H8.24331C7.3133 66.4419 6.75529 65.9589 6.55237 65.0089V61.3864H8.44621V64.3971C8.43808 64.4454 8.44208 64.4948 8.4579 64.5413C8.47371 64.5879 8.50089 64.6301 8.5372 64.6647C8.57351 64.6993 8.61792 64.7252 8.66677 64.7402C8.71562 64.7553 8.76751 64.7591 8.81821 64.7513H10.8812L10.8981 61ZM14.635 77.068C14.8379 77.0841 15.024 77.1002 15.21 77.1002C15.582 77.068 15.8187 76.8104 15.9032 76.3113C15.9762 75.7397 16.01 75.1643 16.0047 74.5886C16.022 73.9467 15.9711 73.3047 15.8525 72.6726C15.8187 72.0769 15.4805 71.771 14.8718 71.771H14.635V77.068Z" fill="#4C4C4C"/>
<path d="M29.414 64.7593V66.5672C28.8695 66.6306 28.293 66.694 27.7004 66.7416V69.2472H30.3269V64.4897H32.2247V69.2472H32.7372C33.8742 69.2472 34.723 69.4375 35.2836 69.834C35.8601 70.1828 36.1964 70.7854 36.2765 71.6101V71.6259C37.1604 71.1275 38.1449 70.8296 39.1592 70.7537V72.4981C38.1909 72.59 37.247 72.8532 36.3726 73.2752C36.3701 73.3026 36.3756 73.3301 36.3886 73.3545C37.3372 73.4237 38.2763 73.5884 39.1912 73.8461V75.7174C38.3962 75.4067 37.5691 75.1834 36.7249 75.0513C37.1413 76.2565 37.8139 76.8591 38.7588 76.8591C39.1112 76.8274 39.4955 76.7799 39.9279 76.764L39.9439 78.5084C39.3674 78.556 38.8549 78.5877 38.4065 78.5877C35.9402 78.5877 34.6269 76.4785 34.4668 72.2603C34.36 71.4356 33.8635 71.0233 32.9774 71.0233H32.1927V79H30.3029V71.0233H27.6764V71.2453C27.5643 75.1782 26.155 77.7313 23.4965 78.9207L23.4805 76.764C25.0019 75.9711 25.7866 74.0681 25.8347 71.0233H23L23.016 69.2631H25.8186V66.916C25.098 66.9478 24.3613 66.9953 23.5925 67.0271V65.2192C25.5413 65.1954 27.4861 65.0417 29.414 64.7593ZM23.8568 62H32.8893C33.9783 62 34.8111 62.1903 35.3877 62.5868C35.6847 62.774 35.9188 63.0445 36.0603 63.3638C37.0212 62.9356 38.0462 62.5392 39.1352 62.1427V63.9981C38.2383 64.2836 37.3095 64.6166 36.3806 64.9813V65.0606C37.3196 65.1285 38.2515 65.2717 39.1672 65.4888V67.2491C38.3624 66.9919 37.5374 66.801 36.7009 66.6782C37.0852 67.8041 37.7899 68.375 38.8149 68.3909C39.1672 68.3591 39.5676 68.3433 39.984 68.3116L40 69.9767C39.4235 70.0084 38.927 70.0401 38.4786 70.0401C36.0443 70.0401 34.7471 68.3591 34.5709 64.9813C34.4908 64.1726 34.0104 63.7603 33.1295 63.7603H23.8248L23.8568 62Z" fill="#4C4C4C"/>
<path d="M48.6124 63.4986H47.2072C46.5504 64.2548 45.8325 64.7479 45.0382 64.9288L45.0229 62.9233C45.7714 62.7041 46.3976 62.063 46.9017 61L48.6888 61.0164C48.5719 61.2988 48.4393 61.5733 48.2917 61.8384H53.2253V63.4986H50.3995V64.9945C50.4024 65.1098 50.3973 65.2252 50.3842 65.3397H53.4239V67.0164H50.2926C50.7661 67.8055 51.7742 68.4137 53.3475 68.8411V70.863C51.5604 70.2548 50.2162 69.4 49.3303 68.3315C48.4444 69.5315 47.0239 70.4849 45.0535 71.1918V69.1205C46.4587 68.5945 47.4363 67.8877 48.0014 67.0164H45V65.3397H48.5895C48.6018 65.2472 48.6069 65.1537 48.6048 65.0603L48.62 63.4986H48.6124ZM56.8148 71.389C59.1823 71.4548 60.3738 72.7534 60.3738 75.2521C60.3738 77.5534 59.3504 78.8027 57.2883 79L46.2449 78.9836V71.389H56.8148ZM48.0778 74.3808H58.3422C58.1284 73.5589 57.6091 73.1479 56.7843 73.1479H48.0778V74.3808ZM48.0778 77.1589L56.937 77.1753C57.6854 77.1589 58.1437 76.7808 58.327 76.0247H48.0778V77.1589ZM58.2048 61.8055C58.6274 61.8204 59.0395 61.9504 59.4028 62.1832C59.7661 62.4161 60.0686 62.7442 60.2821 63.137C60.7709 63.8932 61 64.9945 61 66.4247C61 67.7726 60.7709 68.7918 60.2974 69.4986C59.8391 70.2548 59.1671 70.6658 58.2659 70.7315H54.0807V61.8055H58.2048ZM55.8525 69.0055H57.9298C58.1465 68.9926 58.3557 68.9151 58.5337 68.7815C58.7118 68.648 58.8517 68.4637 58.9379 68.2493C59.1671 67.8055 59.274 67.2137 59.274 66.5069C59.274 65.6521 59.1518 64.9452 58.9074 64.4192C58.663 63.8932 58.2964 63.5808 57.8382 63.4986H55.8449V69.0055H55.8525Z" fill="#4C4C4C"/>
<path d="M68.7663 68.321H82.1854C83.7748 68.3846 84.6774 69.069 84.8931 70.374H85.8638V71.679H84.8761C84.6036 72.9682 83.7521 73.6684 82.2876 73.7639H68.6812V72.3316H81.7938C82.4238 72.3316 82.8325 72.1088 83.0028 71.679H68V70.374H82.9858C82.7644 70.008 82.3387 69.7851 81.7086 69.7215H68.7663V68.321ZM69.5837 74.3528H71.4059C71.3548 76.4854 70.2138 78.0292 68.017 79L68.0341 76.9151C69.0558 76.2944 69.5837 75.435 69.5837 74.3528ZM68.2384 61.7321H71.4399V61H73.5005V61.7321H76.5147V63.0531H73.5005V63.7215H76.3784V65.0424H73.5005V65.695L76.5487 65.6154V67L73.5005 67.0796V67.7321H71.4399V67.1432L68.0851 67.2387V65.8541L71.4399 65.7586V65.0424H68.3746V63.7374H71.4399V63.069H68.2384V61.7321ZM72.8363 74.4324H74.8117C74.7947 74.8143 74.7947 75.2759 74.7947 75.8011C74.8117 76.4536 75.578 76.7878 77.0766 76.7878C79.2734 76.7878 81.1126 76.7401 82.5601 76.6446V78.3793C80.5336 78.443 78.3879 78.4748 76.1571 78.4748C73.9262 78.4748 72.8193 77.5199 72.7852 75.626C72.8193 75.1645 72.8363 74.7666 72.8363 74.4324ZM77.1788 74.3528H79.2904C79.6016 74.9691 79.8413 75.6146 80.0057 76.2785H77.9281C77.8113 75.598 77.557 74.9445 77.1788 74.3528ZM77.2469 65.7427H80.2356V65.0424H77.3917V63.7215H80.2356V63.069H77.2554V61.748H80.2356V61H82.2961V61.748H85.7361V63.069H82.2961V63.7215H85.5317V65.0424H82.2961V65.7427H85.7871V67.0955H82.2961V67.7639H80.2356V67.0796H77.2554L77.2469 65.7427ZM82.1003 74.3528H84.28C85.0204 75.6607 85.5975 77.0438 86 78.4748L83.8203 78.4589C83.4467 77.0254 82.8712 75.6447 82.1088 74.3528H82.1003Z" fill="#4C4C4C"/>
<path d="M91 77.2755H94.119V74.5657H96.0226V77.292H98.6912V73.7445H91.7054V72.1022H108.414V73.7445H100.629V74.6971H107.666V76.3066H100.629V77.2591H108.958V79H91.0085L91 77.2755ZM91.17 61.8047H94.8074V61H96.694V61.8047H100.246V63.3814H96.694V64.104H97.7139C98.3061 64.1176 98.8758 64.3262 99.3286 64.6953C99.5498 64.859 99.728 65.0706 99.8491 65.3131C99.9701 65.5555 100.031 65.8221 100.025 66.0912C100.025 66.781 99.8385 67.323 99.4476 67.6843C99.286 67.8731 99.0827 68.0247 98.8527 68.1277C99.0239 68.7377 99.4159 69.268 99.9575 69.6223V71.6916C98.5977 70.969 97.7139 69.8522 97.289 68.3412H96.694V71.5766H94.8074V68.3248H94.2125C93.9405 69.8029 93.0227 70.9197 91.4419 71.6588L91.4589 69.7537C92.0878 69.3595 92.4787 68.8832 92.6487 68.3248H91.7394V64.0876H94.7989V63.365H91.1615V61.8047H91.17ZM94.8074 65.5H93.5666V66.8467H94.8074V65.5ZM96.694 66.8631H97.5269C98.0368 66.8631 98.2918 66.6332 98.2918 66.1734C98.2918 65.7464 97.9858 65.5328 97.3569 65.5164H96.694V66.8631ZM102.048 61.0328H104.037C103.901 61.4763 103.765 61.8869 103.629 62.281H108.745V63.9398H107.895C107.623 65.5657 107.045 66.9453 106.144 68.1113C107 68.8364 107.962 69.4342 109 69.885V71.8066C107.3 71.3467 105.889 70.5748 104.768 69.4745C103.646 70.3942 102.235 71.1168 100.552 71.6423V69.7208C101.637 69.3337 102.644 68.7668 103.527 68.0456C102.932 67.1858 102.446 66.2593 102.082 65.2865C101.67 65.8777 101.172 66.4086 100.603 66.8631V64.3504C101.215 63.7099 101.691 62.5931 102.048 61.0328ZM103.476 63.9398C103.737 64.9421 104.199 65.8852 104.836 66.7153C105.437 65.8903 105.828 64.939 105.974 63.9398H103.476Z" fill="#4C4C4C"/>
<path d="M115.376 68.5127C114.671 69.2604 113.871 69.8958 113 70.3994V68.0368C114.594 66.881 116.046 64.5354 117.357 61H124.886C125.454 61 126.054 61.4929 126.717 62.4788C127.697 64.3144 128.794 66.075 130 67.7479V70.7904C129.59 70.4334 128.99 69.6856 128.201 68.5297L115.383 68.5127H115.376ZM125.857 70.6544C128.224 70.7394 129.408 72.1501 129.408 74.9037C129.408 77.4363 128.382 78.813 126.346 79H114.823V70.6374H125.857V70.6544ZM116.717 76.9943L125.967 77.0113C126.946 76.9943 127.435 76.2465 127.435 74.7677C127.435 73.289 126.898 72.5411 125.809 72.5411H116.717V76.9943ZM126.851 66.5071C126.409 65.8102 125.92 65.0283 125.415 64.1785C124.988 63.3456 124.404 62.9377 123.694 62.9377H118.769C118.255 64.1816 117.642 65.3757 116.938 66.5071H126.851Z" fill="#4C4C4C"/>
<path d="M137 62.715H143.248C143.474 62.1659 143.637 61.5901 143.734 61L145.645 61.016C145.55 61.5961 145.403 62.1651 145.205 62.715H153V64.6866H144.355C143.921 65.455 143.408 66.17 142.824 66.8183H148.64C150.733 67.0908 151.794 68.3571 151.825 70.6492C151.9 71.4666 151.931 72.4443 151.931 73.5663C151.929 74.0589 151.904 74.5511 151.855 75.041C151.764 77.4292 150.718 78.6634 148.7 78.7435C147.609 78.7435 146.592 78.7115 145.682 78.6634V76.8362C146.608 76.8842 147.593 76.9163 148.67 76.9163C149.413 76.9163 149.838 76.4675 149.959 75.5859H141.83V79H140.056L140.041 69.2066C139.078 69.8266 138.068 70.3627 137.023 70.8094V68.5494C139.267 67.4595 140.966 66.1772 142.103 64.7026H137.008V62.715H137ZM149.876 70.3927C149.785 69.2867 149.3 68.6937 148.405 68.6135H141.838V70.3927H149.876ZM141.838 72.1077V73.8388H150.088V73.2939C150.088 72.8771 150.073 72.4764 150.058 72.0917H141.838V72.1077Z" fill="#4C4C4C"/>
<path d="M164.21 61.0493C165.428 61.0821 166.03 61.7555 166.03 63.0529C165.953 64.3011 165.428 65.615 164.441 66.9781C165.521 69.5566 166.122 71.7901 166.261 73.6953C166.261 75.8631 165.475 76.9471 163.902 76.9471H162.36V75.1734H163.794C164.349 75.1405 164.627 74.6971 164.627 73.8266C164.241 71.4453 163.584 69.1233 162.668 66.9124C163.239 66.3212 163.763 65.0894 164.241 63.25C164.241 62.9708 164.087 62.7901 163.763 62.7245H161.743V79H160V61.0493H164.21ZM171.844 61C172.939 61.0821 173.772 61.5748 174.358 62.4781C174.928 63.2336 175.221 64.2847 175.221 65.5821C175.19 67.0274 174.882 68.1277 174.311 68.8996C173.741 69.6715 172.954 70.0985 171.875 70.1478H171.481C171.664 70.7629 171.88 71.3661 172.129 71.9544C173.227 71.1494 174.502 70.6626 175.83 70.542V72.2993C174.799 72.442 173.809 72.8231 172.931 73.4161C173.734 74.655 174.781 75.692 176 76.4544V78.3923C172.885 77.188 170.793 74.4398 169.723 70.1478H168.567V75.5511C168.628 76.3066 168.983 76.7172 169.646 76.8157C170.593 76.8251 171.536 76.7036 172.453 76.4544V78.3595C171.697 78.5894 170.649 78.7044 169.292 78.7044C167.811 78.5566 166.978 77.5712 166.793 75.7646V61H171.844ZM168.59 62.7573V64.6953H173.355C173.17 63.5949 172.584 62.938 171.628 62.7573H168.59ZM173.278 66.4526H168.574V68.3741H171.227C172.337 68.2755 173.031 67.635 173.278 66.4526Z" fill="#4C4C4C"/>
<path d="M185.741 61H187.724C186.597 65.4363 184.689 68.6997 182 70.7904V68.1728C183.653 66.4561 184.907 64.0765 185.741 61ZM188.61 67.272H190.879L185.621 76.5014C185.621 76.7904 185.771 76.9263 186.056 76.9433H193.733C194.124 76.8754 194.319 76.5694 194.319 76.0595V73.085H196.242V76.9943C196.182 78.2011 195.506 78.881 194.229 79H184.208C183.623 78.966 183.217 78.5241 182.992 77.7082C183.007 77.3822 183.068 77.0609 183.172 76.7564L188.61 67.272ZM192.471 61.051C193.523 61.187 194.424 61.8159 195.176 62.9207C196.277 65.6402 197.219 68.2408 198 70.7224H195.792C195.116 68.4788 194.394 66.2351 193.628 63.9915C193.208 63.3286 192.712 63.0057 192.126 63.0057H188.31V61.068H192.471V61.051Z" fill="#4C4C4C"/>
<path d="M205 64.8946H217.416V66.9436H205V64.8946ZM205.283 61H215.955C217.071 61.0169 218.014 61.3217 218.768 61.9313C219.516 62.4826 220.096 63.2604 220.434 64.1665C220.811 65.4083 221 67.508 221 70.4657C221 72.3283 220.906 73.7168 220.733 74.6312C220.576 75.952 220.136 77.0188 219.397 77.8147C218.517 78.5767 217.605 78.9661 216.678 79C214.509 79 212.859 78.9492 211.727 78.8476V76.7987C212.796 76.9003 214.305 76.9511 216.269 76.9511C216.851 76.9172 217.385 76.6463 217.919 76.1722C218.399 75.6917 218.705 75.0438 218.784 74.3434C218.913 73.0045 218.979 71.6594 218.98 70.3133C218.98 67.9595 218.886 66.2324 218.682 65.1656C218.367 63.8617 217.377 63.1336 215.711 62.9812H205.259L205.283 61ZM213.519 68.5353C214.54 68.6538 215.31 69.0094 215.86 69.6359C216.442 70.1778 216.741 70.9398 216.756 71.9389C216.756 73.0564 216.489 73.8862 215.955 74.4619C215.655 74.8049 215.295 75.0803 214.896 75.2722C214.496 75.464 214.066 75.5685 213.629 75.5795H205.974V68.5353H213.519ZM207.876 73.683L213.079 73.666C214.257 73.6322 214.886 73.0395 214.949 71.9219C214.87 70.9737 214.367 70.4487 213.424 70.3133H207.876V73.683Z" fill="#4C4C4C"/>
<path d="M6.57215 95L4.11692 90.7659H2.28856V95H1V85H4.16915C6.22388 85 7.70399 85.7229 7.70399 87.8055C7.70399 89.3546 6.7985 90.284 5.40547 90.611L8 94.9828L6.57215 95ZM2.28856 89.7332H3.97761C5.56219 89.7332 6.43283 89.1136 6.43283 87.8055C6.43283 86.4974 5.56219 86.0155 3.97761 86.0155H2.28856V89.7332Z" fill="#7A7A7A"/>
<path d="M9 91.5155C9 89.3628 10.2877 88 11.6575 88C13.1507 88 14 89.2235 14 91.1283C13.9962 91.3406 13.9825 91.5526 13.9589 91.7633H9.98629C10.0548 93.188 10.8219 94.1018 11.9452 94.1018C12.4742 94.1003 12.9903 93.9166 13.4246 93.5752L13.7808 94.3186C13.2036 94.764 12.5207 95.0015 11.8219 95C10.2603 95 9 93.7146 9 91.5155ZM13.137 90.9734C13.137 89.6261 12.589 88.8982 11.6712 88.8982C10.8356 88.8982 10.0959 89.6571 9.9726 90.9734H13.137Z" fill="#7A7A7A"/>
<path d="M17 88H18.148L19.3878 91.9884C19.5867 92.6721 19.801 93.3884 20 94.0558H20.0459C20.2449 93.4046 20.4592 92.6721 20.6582 91.9884L21.9133 88H23L20.6582 95H19.3725L17 88Z" fill="#7A7A7A"/>
<path d="M24 85.7667C24 85.2936 24.63 85 25.5 85C26.37 85 27 85.2773 27 85.7667C27 85.8716 26.9604 85.9753 26.8838 86.0716C26.8073 86.1679 26.6953 86.2546 26.5548 86.3264C26.4142 86.3982 26.2481 86.4536 26.0667 86.4893C25.8853 86.5249 25.6925 86.5399 25.5 86.5334C25.3081 86.5385 25.1163 86.5225 24.936 86.4864C24.7558 86.4502 24.5907 86.3947 24.4507 86.3232C24.3108 86.2516 24.1987 86.1655 24.1213 86.0699C24.0438 85.9743 24.0026 85.8712 24 85.7667ZM24.42 87.9853H26.58V95H24.42V87.9853Z" fill="#7A7A7A"/>
<path d="M28 88H29.148L30.3878 91.9884C30.5867 92.6721 30.801 93.3884 31 94.0558H31.0459C31.2449 93.4046 31.4592 92.6721 31.6582 91.9884L32.9133 88H34L31.6582 95H30.3725L28 88Z" fill="#7A7A7A"/>
<path d="M36 93.1106C36 91.6549 37.2166 90.9425 39.9318 90.6173C39.9318 89.7655 39.6647 88.9292 38.6113 88.9292C37.8694 88.9292 37.2018 89.2854 36.6973 89.6416L36.2671 88.8673C36.8605 88.4801 37.7656 88 38.7893 88C40.3472 88 41 89.0996 41 90.7412V94.8451H40.1246L40.0356 94.0398H40.0059C39.3976 94.5664 38.6706 95 37.8843 95C36.8086 95 36 94.3186 36 93.1106ZM39.9318 93.219V91.3606C37.7804 91.6239 37.0534 92.1814 37.0534 93.0487C37.0534 93.8075 37.543 94.1173 38.181 94.1173C38.819 94.1173 39.3086 93.8075 39.9318 93.219Z" fill="#7A7A7A"/>
<path d="M42 93.3654V84H43.8305V93.4513C43.8305 93.8294 44.0847 93.984 44.3644 93.984C44.4934 93.9857 44.622 93.9741 44.7458 93.9496L45 94.8948C44.6569 94.9743 44.2946 95.0093 43.9322 94.9979C42.572 94.9979 42 94.4136 42 93.3654Z" fill="#7A7A7A"/>
<path d="M51 93.5572L51.7681 92.728C52.129 93.0951 52.5636 93.3898 53.0463 93.5948C53.529 93.7999 54.05 93.9111 54.5786 93.9221C55.9052 93.9221 56.7082 93.2919 56.7082 92.3466C56.7082 91.3682 55.9751 91.0531 55.015 90.6385L53.5486 90.0415C52.606 89.6601 51.4888 88.9801 51.4888 87.5705C51.4888 86.078 52.8504 85 54.6833 85C55.2399 84.9975 55.7913 85.102 56.3043 85.3072C56.8173 85.5124 57.2812 85.8141 57.6683 86.1941L56.9875 86.9735C56.3591 86.4262 55.6259 86.0614 54.6833 86.0614C53.5312 86.0614 52.7805 86.6087 52.7805 87.4876C52.7805 88.4163 53.6708 88.7811 54.4563 89.0962L55.9052 89.6932C57.0748 90.1742 58 90.8375 58 92.2637C58 93.7894 56.6733 95 54.5611 95C53.8958 95.0001 53.2373 94.8723 52.6253 94.6243C52.0134 94.3764 51.4605 94.0134 51 93.5572Z" fill="#7A7A7A"/>
<path d="M60 88.1742H60.8955L60.9865 89.1719H61.0169C61.5784 88.5226 62.2614 88 63.0506 88C64.0523 88 64.5835 88.5068 64.8567 89.2986C65.5245 88.5385 66.2226 88 67.0118 88C68.3626 88 69 88.9344 69 90.6765V95H67.9224V90.8348C67.9224 89.552 67.543 89.0136 66.7083 89.0136C66.2074 89.0136 65.6762 89.3462 65.054 90.0588V95H63.9612V90.8348C63.9612 89.552 63.5818 89.0136 62.747 89.0136C62.2614 89.0136 61.6998 89.3462 61.0927 90.0588V95H60V88.1742Z" fill="#7A7A7A"/>
<path d="M72 93.1106C72 91.6549 73.4599 90.9425 76.7181 90.6173C76.7181 89.7655 76.3976 88.9292 75.1335 88.9292C74.2433 88.9292 73.4421 89.2854 72.8368 89.6416L72.3205 88.8673C73.0326 88.4801 74.1187 88 75.3472 88C77.2166 88 78 89.0996 78 90.7412V94.8451H76.9317L76.8249 94.0398H76.7893C76.0594 94.5664 75.1869 95 74.2433 95C72.9614 95 72 94.3186 72 93.1106ZM76.7181 93.219V91.3606C74.1365 91.6239 73.2641 92.1814 73.2641 93.0487C73.2641 93.8075 73.8516 94.1173 74.6172 94.1173C75.3828 94.1173 75.9703 93.8075 76.7181 93.219Z" fill="#7A7A7A"/>
<path d="M81.0127 88.193H81.7627L81.839 89.4278H81.8644C82.2458 88.5571 82.8051 88.0031 83.4153 88.0031C83.6183 87.9859 83.821 88.0408 84 88.1614L83.8348 89.1587C83.6658 89.0721 83.4832 89.0342 83.3008 89.0479C82.8432 89.0479 82.2839 89.4436 81.9152 90.6151V95H81V88.193H81.0127Z" fill="#7A7A7A"/>
<path d="M86.9606 92.451V88.1907H86V87.2103L87.0056 87.139L87.1407 85H88.0413V87.139H89.8049V88.1907H88.0488V92.4688C88.0488 93.4135 88.3039 93.9483 89.0544 93.9483C89.3065 93.9276 89.5545 93.8615 89.7899 93.7522L90 94.7148C89.6189 94.8796 89.2193 94.9757 88.8143 95C87.4259 95 86.9606 93.984 86.9606 92.451Z" fill="#7A7A7A"/>
<path d="M95 85H96V95H95V85Z" fill="#7A7A7A"/>
<path d="M100.017 88.1742H101.047L101.151 89.1561H101.186C101.901 88.5226 102.686 88 103.698 88C105.267 88 106 88.9344 106 90.6765V95H104.744V90.8348C104.744 89.552 104.308 89.0136 103.314 89.0136C102.546 89.0136 102.023 89.362 101.256 90.0588V95H100L100.017 88.1742Z" fill="#7A7A7A"/>
<path d="M107.962 92.451V88.1907H107V87.2103L108.008 87.139L108.143 85H109.045V87.139H110.805V88.1907H109.045V92.4688C109.045 93.4135 109.301 93.9483 110.053 93.9483C110.305 93.9276 110.554 93.8615 110.789 93.7522L111 94.7148C110.618 94.8796 110.218 94.9757 109.812 95C108.429 95 107.962 93.984 107.962 92.451Z" fill="#7A7A7A"/>
<path d="M111 91.5155C111 89.3628 112.803 88 114.721 88C116.811 88 118 89.2235 118 91.1283C117.995 91.3406 117.976 91.5526 117.942 91.7633H112.381C112.477 93.188 113.551 94.1018 115.123 94.1018C115.864 94.1003 116.586 93.9166 117.194 93.5752L117.693 94.3186C116.885 94.764 115.929 95.0015 114.951 95C112.764 95 111 93.7146 111 91.5155ZM116.792 90.9734C116.792 89.6261 116.025 88.8982 114.74 88.8982C113.57 88.8982 112.534 89.6571 112.362 90.9734H116.792Z" fill="#7A7A7A"/>
<path d="M120 96.1875C120 95.625 120.425 95.0781 121.134 94.6719V94.625C120.91 94.5168 120.725 94.3555 120.6 94.1595C120.475 93.9635 120.414 93.7404 120.425 93.5156C120.425 92.9531 120.886 92.5156 121.276 92.2656V92.2188C120.968 92.0011 120.718 91.7254 120.547 91.4117C120.375 91.0981 120.285 90.7545 120.284 90.4062C120.284 88.9375 121.613 88 123.154 88C123.517 88.0062 123.876 88.0642 124.218 88.1719H126.876V89.0313H125.316C125.52 89.2146 125.68 89.4322 125.787 89.6711C125.893 89.91 125.944 90.1653 125.937 90.4219C125.937 91.8594 124.696 92.7656 123.154 92.7656C122.762 92.7585 122.375 92.6786 122.02 92.5312C121.869 92.6214 121.745 92.7424 121.659 92.8838C121.573 93.0253 121.526 93.1831 121.524 93.3438C121.524 93.7813 121.825 94.0781 122.853 94.0781H124.342C126.114 94.0781 127 94.5781 127 95.6719C127 96.9219 125.511 98 123.154 98C121.294 97.9844 120 97.3437 120 96.1875ZM125.777 95.8281C125.777 95.2031 125.228 95 124.218 95H122.906C122.578 94.9993 122.25 94.9625 121.932 94.8906C121.382 95.2344 121.152 95.6406 121.152 96.0312C121.152 96.75 121.985 97.2188 123.367 97.2188C124.803 97.2188 125.777 96.5469 125.777 95.8281ZM124.785 90.3906C124.785 89.4062 124.076 88.8125 123.172 88.8125C122.268 88.8125 121.542 89.3906 121.542 90.3906C121.542 91.3906 122.295 91.9844 123.181 91.9844C124.067 91.9844 124.785 91.375 124.785 90.3906Z" fill="#7A7A7A"/>
<path d="M128.021 88.193H129.271L129.398 89.4278H129.441C130.076 88.5571 131.008 88.0031 132.025 88.0031C132.364 87.9859 132.702 88.0408 133 88.1614L132.725 89.1587C132.443 89.0721 132.139 89.0342 131.835 89.0479C131.072 89.0479 130.14 89.4436 129.525 90.6151V95H128V88.193H128.021Z" fill="#7A7A7A"/>
<path d="M133 93.1106C133 91.6549 134.46 90.9425 137.718 90.6173C137.718 89.7655 137.398 88.9292 136.134 88.9292C135.243 88.9292 134.442 89.2854 133.837 89.6416L133.32 88.8673C134.033 88.4801 135.119 88 136.347 88C138.217 88 139 89.0996 139 90.7412V94.8451H137.95L137.843 94.0398H137.807C137.077 94.5664 136.205 95 135.261 95C133.961 95 133 94.3186 133 93.1106ZM137.718 93.219V91.3606C135.137 91.6239 134.264 92.1814 134.264 93.0487C134.264 93.8075 134.852 94.1173 135.617 94.1173C136.383 94.1173 136.97 93.8075 137.727 93.219H137.718Z" fill="#7A7A7A"/>
<path d="M142.203 92.451V88.1907H141V87.2103L142.259 87.139L142.429 85H143.556V87.139H145.756V88.1907H143.556V92.4688C143.556 93.4135 143.876 93.9483 144.816 93.9483C145.132 93.9276 145.442 93.8615 145.737 93.7522L146 94.7148C145.523 94.8796 145.022 94.9757 144.515 95C142.786 95 142.203 93.984 142.203 92.451Z" fill="#7A7A7A"/>
<path d="M147 85.7667C147 85.2936 147.42 85 148 85C148.58 85 149 85.2773 149 85.7667C149 85.983 148.895 86.1905 148.707 86.3435C148.52 86.4964 148.265 86.5824 148 86.5824C147.735 86.5824 147.48 86.4964 147.293 86.3435C147.105 86.1905 147 85.983 147 85.7667ZM147.26 87.9853H148.7V95H147.26V87.9853Z" fill="#7A7A7A"/>
<path d="M151 91.5155C151 89.3009 152.41 88 154 88C155.59 88 157 89.2854 157 91.5155C157 93.7456 155.59 95 154 95C152.41 95 151 93.7301 151 91.5155ZM155.875 91.5155C155.875 89.9823 155.11 88.9447 154 88.9447C152.89 88.9447 152.14 89.9823 152.14 91.5155C152.14 93.0487 152.89 94.0708 154 94.0708C155.11 94.0708 155.875 93.0487 155.875 91.5155Z" fill="#7A7A7A"/>
<path d="M160.017 88.1742H161.047L161.151 89.1561H161.186C161.901 88.5226 162.686 88 163.698 88C165.267 88 166 88.9344 166 90.6765V95H164.744V90.8348C164.744 89.552 164.308 89.0136 163.314 89.0136C162.547 89.0136 162.006 89.362 161.256 90.0588V95H160L160.017 88.1742Z" fill="#7A7A7A"/>
<path d="M171 90.008C171 86.8905 173.042 85 175.789 85C176.347 85.0022 176.899 85.1096 177.407 85.3154C177.916 85.5211 178.37 85.8205 178.74 86.194L177.998 86.9899C177.722 86.7072 177.383 86.4797 177.003 86.3225C176.622 86.1653 176.208 86.082 175.789 86.0779C173.747 86.0779 172.392 87.5704 172.392 89.9749C172.392 92.4126 173.691 93.9382 175.752 93.9382C176.773 93.9382 177.552 93.5236 178.258 92.8603L179 93.6231C178.602 94.0612 178.098 94.4128 177.525 94.6512C176.953 94.8897 176.328 95.0088 175.696 94.9995C173.005 94.9829 171 93.1422 171 90.008Z" fill="#7A7A7A"/>
<path d="M180 91.5155C180 89.3009 181.645 88 183.5 88C185.355 88 187 89.2854 187 91.5155C187 93.7456 185.355 95 183.5 95C181.645 95 180 93.7301 180 91.5155ZM185.688 91.5155C185.688 89.9823 184.795 88.9447 183.5 88.9447C182.205 88.9447 181.33 89.9823 181.33 91.5155C181.33 93.0487 182.205 94.0708 183.5 94.0708C184.795 94.0708 185.688 93.0487 185.688 91.5155Z" fill="#7A7A7A"/>
<path d="M188.001 94.0093C187.994 93.8817 188.024 93.7543 188.09 93.6345C188.157 93.5147 188.258 93.4049 188.388 93.3113C188.519 93.2177 188.676 93.1422 188.85 93.0891C189.024 93.0361 189.212 93.0065 189.404 93.0021C189.703 92.9891 190.001 93.0364 190.26 93.1378C190.519 93.2392 190.726 93.39 190.855 93.5708C190.984 93.7516 191.028 93.954 190.983 94.1518C190.937 94.3496 190.804 94.5338 190.599 94.6805C190.395 94.8271 190.13 94.9295 189.837 94.9745C189.545 95.0194 189.239 95.0048 188.959 94.9325C188.679 94.8602 188.438 94.7336 188.267 94.569C188.097 94.4044 188.004 94.2094 188.001 94.0093Z" fill="#7A7A7A"/>
<path d="M193 96.3175C193.368 95.9841 193.586 95.381 193.594 94.6032C193.572 94.6163 193.549 94.6216 193.526 94.619C193.316 94.619 193.128 94.3492 193.128 93.8095C193.128 93.3175 193.316 93 193.541 93C193.827 93 194 93.5079 194 94.3651C194 95.5714 193.669 96.5238 193.128 97L193 96.3175Z" fill="#7A7A7A"/>
<path d="M201 85H202.352V93.9157H207V95H201.027V85H201Z" fill="#7A7A7A"/>
<path d="M208.201 92.451V88.1907H207V87.2103L208.257 87.139L208.426 85H209.552V87.139H211.747V88.1907H209.561V92.4688C209.561 93.4135 209.88 93.9483 210.818 93.9483C211.133 93.9276 211.443 93.8615 211.737 93.7522L212 94.7148C211.524 94.8796 211.024 94.9757 210.518 95C208.782 95 208.201 93.984 208.201 92.451Z" fill="#7A7A7A"/>
<path d="M214 91.1388C214 88.7535 215.408 87.2434 216.976 87.2434C217.792 87.2434 218.304 87.5694 218.912 88.1186L218.848 86.8487V84H220V94.8284H219.056L218.944 93.9532H218.912C218.368 94.5195 217.648 95 216.816 95C215.104 95 214 93.61 214 91.1388ZM218.848 92.9579V89.0796C218.272 88.5304 217.744 88.3073 217.168 88.3073C216.048 88.3073 215.184 89.4571 215.184 91.1388C215.184 92.9236 215.872 93.9875 217.088 93.9875C217.728 93.9704 218.272 93.6271 218.848 92.9579Z" fill="#7A7A7A"/>
<path d="M0.00844229 68.2934H1.83466V63.8497H0.0253475V61.966H5.69844V63.8497H3.82151V68.2934H5.56316V70.161H3.82151V74.6047C4.46407 74.5081 5.12353 74.4115 5.78299 74.2826V76.1825C4.24424 76.5045 2.31658 76.7299 0 76.8909V74.9106C0.608737 74.8945 1.23438 74.8784 1.86003 74.8301V70.161H0.0338105L0.0169052 68.2934H0.00844229ZM6.18036 67.3274H18V69.1306H12.6736C12.5214 69.4848 12.3861 69.8229 12.2508 70.1127H15.5143C16.6304 70.3059 17.3405 70.8694 17.6449 71.8193C17.814 72.3023 17.9154 73.2039 17.9324 74.5242C17.9324 75.3614 17.8985 76.0215 17.8478 76.5045C17.5942 77.9535 16.9516 78.7424 15.9371 78.8551C15.2212 78.8764 14.5053 78.8115 13.8065 78.6619V78.3399H12.8934V71.7871H11.5406V78.3399H9.81587V71.7871H8.46312V79H6.56928V70.1288H10.0695C10.1879 69.8068 10.3232 69.4848 10.4753 69.1467H6.18036V67.3274ZM10.8981 61H12.9103V64.7513H15.0409C15.2776 64.7513 15.396 64.6708 15.396 64.5098V61.3864H17.3744V64.9928C17.3744 65.9589 16.7656 66.4419 15.5481 66.4741H8.24331C7.3133 66.4419 6.75529 65.9589 6.55237 65.0089V61.3864H8.44621V64.3971C8.43808 64.4454 8.44208 64.4948 8.4579 64.5413C8.47371 64.5879 8.50089 64.6301 8.5372 64.6647C8.57351 64.6993 8.61792 64.7252 8.66677 64.7402C8.71562 64.7553 8.76751 64.7591 8.81821 64.7513H10.8812L10.8981 61ZM14.635 77.068C14.8379 77.0841 15.024 77.1002 15.21 77.1002C15.582 77.068 15.8187 76.8104 15.9032 76.3113C15.9762 75.7397 16.01 75.1643 16.0047 74.5886C16.022 73.9467 15.9711 73.3047 15.8525 72.6726C15.8187 72.0769 15.4805 71.771 14.8718 71.771H14.635V77.068Z" fill="#4C4C4C"/>
<path d="M29.414 64.7593V66.5672C28.8695 66.6306 28.293 66.694 27.7004 66.7416V69.2472H30.3269V64.4897H32.2247V69.2472H32.7372C33.8742 69.2472 34.723 69.4375 35.2836 69.834C35.8601 70.1828 36.1964 70.7854 36.2765 71.6101V71.6259C37.1604 71.1275 38.1449 70.8296 39.1592 70.7537V72.4981C38.1909 72.59 37.247 72.8532 36.3726 73.2752C36.3701 73.3026 36.3756 73.3301 36.3886 73.3545C37.3372 73.4237 38.2763 73.5884 39.1912 73.8461V75.7174C38.3962 75.4067 37.5691 75.1834 36.7249 75.0513C37.1413 76.2565 37.8139 76.8591 38.7588 76.8591C39.1112 76.8274 39.4955 76.7799 39.9279 76.764L39.9439 78.5084C39.3674 78.556 38.8549 78.5877 38.4065 78.5877C35.9402 78.5877 34.6269 76.4785 34.4668 72.2603C34.36 71.4356 33.8635 71.0233 32.9774 71.0233H32.1927V79H30.3029V71.0233H27.6764V71.2453C27.5643 75.1782 26.155 77.7313 23.4965 78.9207L23.4805 76.764C25.0019 75.9711 25.7866 74.0681 25.8347 71.0233H23L23.016 69.2631H25.8186V66.916C25.098 66.9478 24.3613 66.9953 23.5925 67.0271V65.2192C25.5413 65.1954 27.4861 65.0417 29.414 64.7593ZM23.8568 62H32.8893C33.9783 62 34.8111 62.1903 35.3877 62.5868C35.6847 62.774 35.9188 63.0445 36.0603 63.3638C37.0212 62.9356 38.0462 62.5392 39.1352 62.1427V63.9981C38.2383 64.2836 37.3095 64.6166 36.3806 64.9813V65.0606C37.3196 65.1285 38.2515 65.2717 39.1672 65.4888V67.2491C38.3624 66.9919 37.5374 66.801 36.7009 66.6782C37.0852 67.8041 37.7899 68.375 38.8149 68.3909C39.1672 68.3591 39.5676 68.3433 39.984 68.3116L40 69.9767C39.4235 70.0084 38.927 70.0401 38.4786 70.0401C36.0443 70.0401 34.7471 68.3591 34.5709 64.9813C34.4908 64.1726 34.0104 63.7603 33.1295 63.7603H23.8248L23.8568 62Z" fill="#4C4C4C"/>
<path d="M48.6124 63.4986H47.2072C46.5504 64.2548 45.8325 64.7479 45.0382 64.9288L45.0229 62.9233C45.7714 62.7041 46.3976 62.063 46.9017 61L48.6888 61.0164C48.5719 61.2988 48.4393 61.5733 48.2917 61.8384H53.2253V63.4986H50.3995V64.9945C50.4024 65.1098 50.3973 65.2252 50.3842 65.3397H53.4239V67.0164H50.2926C50.7661 67.8055 51.7742 68.4137 53.3475 68.8411V70.863C51.5604 70.2548 50.2162 69.4 49.3303 68.3315C48.4444 69.5315 47.0239 70.4849 45.0535 71.1918V69.1205C46.4587 68.5945 47.4363 67.8877 48.0014 67.0164H45V65.3397H48.5895C48.6018 65.2472 48.6069 65.1537 48.6048 65.0603L48.62 63.4986H48.6124ZM56.8148 71.389C59.1823 71.4548 60.3738 72.7534 60.3738 75.2521C60.3738 77.5534 59.3504 78.8027 57.2883 79L46.2449 78.9836V71.389H56.8148ZM48.0778 74.3808H58.3422C58.1284 73.5589 57.6091 73.1479 56.7843 73.1479H48.0778V74.3808ZM48.0778 77.1589L56.937 77.1753C57.6854 77.1589 58.1437 76.7808 58.327 76.0247H48.0778V77.1589ZM58.2048 61.8055C58.6274 61.8204 59.0395 61.9504 59.4028 62.1832C59.7661 62.4161 60.0686 62.7442 60.2821 63.137C60.7709 63.8932 61 64.9945 61 66.4247C61 67.7726 60.7709 68.7918 60.2974 69.4986C59.8391 70.2548 59.1671 70.6658 58.2659 70.7315H54.0807V61.8055H58.2048ZM55.8525 69.0055H57.9298C58.1465 68.9926 58.3557 68.9151 58.5337 68.7815C58.7118 68.648 58.8517 68.4637 58.9379 68.2493C59.1671 67.8055 59.274 67.2137 59.274 66.5069C59.274 65.6521 59.1518 64.9452 58.9074 64.4192C58.663 63.8932 58.2964 63.5808 57.8382 63.4986H55.8449V69.0055H55.8525Z" fill="#4C4C4C"/>
<path d="M68.7663 68.321H82.1854C83.7748 68.3846 84.6774 69.069 84.8931 70.374H85.8638V71.679H84.8761C84.6036 72.9682 83.7521 73.6684 82.2876 73.7639H68.6812V72.3316H81.7938C82.4238 72.3316 82.8325 72.1088 83.0028 71.679H68V70.374H82.9858C82.7644 70.008 82.3387 69.7851 81.7086 69.7215H68.7663V68.321ZM69.5837 74.3528H71.4059C71.3548 76.4854 70.2138 78.0292 68.017 79L68.0341 76.9151C69.0558 76.2944 69.5837 75.435 69.5837 74.3528ZM68.2384 61.7321H71.4399V61H73.5005V61.7321H76.5147V63.0531H73.5005V63.7215H76.3784V65.0424H73.5005V65.695L76.5487 65.6154V67L73.5005 67.0796V67.7321H71.4399V67.1432L68.0851 67.2387V65.8541L71.4399 65.7586V65.0424H68.3746V63.7374H71.4399V63.069H68.2384V61.7321ZM72.8363 74.4324H74.8117C74.7947 74.8143 74.7947 75.2759 74.7947 75.8011C74.8117 76.4536 75.578 76.7878 77.0766 76.7878C79.2734 76.7878 81.1126 76.7401 82.5601 76.6446V78.3793C80.5336 78.443 78.3879 78.4748 76.1571 78.4748C73.9262 78.4748 72.8193 77.5199 72.7852 75.626C72.8193 75.1645 72.8363 74.7666 72.8363 74.4324ZM77.1788 74.3528H79.2904C79.6016 74.9691 79.8413 75.6146 80.0057 76.2785H77.9281C77.8113 75.598 77.557 74.9445 77.1788 74.3528ZM77.2469 65.7427H80.2356V65.0424H77.3917V63.7215H80.2356V63.069H77.2554V61.748H80.2356V61H82.2961V61.748H85.7361V63.069H82.2961V63.7215H85.5317V65.0424H82.2961V65.7427H85.7871V67.0955H82.2961V67.7639H80.2356V67.0796H77.2554L77.2469 65.7427ZM82.1003 74.3528H84.28C85.0204 75.6607 85.5975 77.0438 86 78.4748L83.8203 78.4589C83.4467 77.0254 82.8712 75.6447 82.1088 74.3528H82.1003Z" fill="#4C4C4C"/>
<path d="M91 77.2755H94.119V74.5657H96.0226V77.292H98.6912V73.7445H91.7054V72.1022H108.414V73.7445H100.629V74.6971H107.666V76.3066H100.629V77.2591H108.958V79H91.0085L91 77.2755ZM91.17 61.8047H94.8074V61H96.694V61.8047H100.246V63.3814H96.694V64.104H97.7139C98.3061 64.1176 98.8758 64.3262 99.3286 64.6953C99.5498 64.859 99.728 65.0706 99.8491 65.3131C99.9701 65.5555 100.031 65.8221 100.025 66.0912C100.025 66.781 99.8385 67.323 99.4476 67.6843C99.286 67.8731 99.0827 68.0247 98.8527 68.1277C99.0239 68.7377 99.4159 69.268 99.9575 69.6223V71.6916C98.5977 70.969 97.7139 69.8522 97.289 68.3412H96.694V71.5766H94.8074V68.3248H94.2125C93.9405 69.8029 93.0227 70.9197 91.4419 71.6588L91.4589 69.7537C92.0878 69.3595 92.4787 68.8832 92.6487 68.3248H91.7394V64.0876H94.7989V63.365H91.1615V61.8047H91.17ZM94.8074 65.5H93.5666V66.8467H94.8074V65.5ZM96.694 66.8631H97.5269C98.0368 66.8631 98.2918 66.6332 98.2918 66.1734C98.2918 65.7464 97.9858 65.5328 97.3569 65.5164H96.694V66.8631ZM102.048 61.0328H104.037C103.901 61.4763 103.765 61.8869 103.629 62.281H108.745V63.9398H107.895C107.623 65.5657 107.045 66.9453 106.144 68.1113C107 68.8364 107.962 69.4342 109 69.885V71.8066C107.3 71.3467 105.889 70.5748 104.768 69.4745C103.646 70.3942 102.235 71.1168 100.552 71.6423V69.7208C101.637 69.3337 102.644 68.7668 103.527 68.0456C102.932 67.1858 102.446 66.2593 102.082 65.2865C101.67 65.8777 101.172 66.4086 100.603 66.8631V64.3504C101.215 63.7099 101.691 62.5931 102.048 61.0328ZM103.476 63.9398C103.737 64.9421 104.199 65.8852 104.836 66.7153C105.437 65.8903 105.828 64.939 105.974 63.9398H103.476Z" fill="#4C4C4C"/>
<path d="M115.376 68.5127C114.671 69.2604 113.871 69.8958 113 70.3994V68.0368C114.594 66.881 116.046 64.5354 117.357 61H124.886C125.454 61 126.054 61.4929 126.717 62.4788C127.697 64.3144 128.794 66.075 130 67.7479V70.7904C129.59 70.4334 128.99 69.6856 128.201 68.5297L115.383 68.5127H115.376ZM125.857 70.6544C128.224 70.7394 129.408 72.1501 129.408 74.9037C129.408 77.4363 128.382 78.813 126.346 79H114.823V70.6374H125.857V70.6544ZM116.717 76.9943L125.967 77.0113C126.946 76.9943 127.435 76.2465 127.435 74.7677C127.435 73.289 126.898 72.5411 125.809 72.5411H116.717V76.9943ZM126.851 66.5071C126.409 65.8102 125.92 65.0283 125.415 64.1785C124.988 63.3456 124.404 62.9377 123.694 62.9377H118.769C118.255 64.1816 117.642 65.3757 116.938 66.5071H126.851Z" fill="#4C4C4C"/>
<path d="M137 62.715H143.248C143.474 62.1659 143.637 61.5901 143.734 61L145.645 61.016C145.55 61.5961 145.403 62.1651 145.205 62.715H153V64.6866H144.355C143.921 65.455 143.408 66.17 142.824 66.8183H148.64C150.733 67.0908 151.794 68.3571 151.825 70.6492C151.9 71.4666 151.931 72.4443 151.931 73.5663C151.929 74.0589 151.904 74.5511 151.855 75.041C151.764 77.4292 150.718 78.6634 148.7 78.7435C147.609 78.7435 146.592 78.7115 145.682 78.6634V76.8362C146.608 76.8842 147.593 76.9163 148.67 76.9163C149.413 76.9163 149.838 76.4675 149.959 75.5859H141.83V79H140.056L140.041 69.2066C139.078 69.8266 138.068 70.3627 137.023 70.8094V68.5494C139.267 67.4595 140.966 66.1772 142.103 64.7026H137.008V62.715H137ZM149.876 70.3927C149.785 69.2867 149.3 68.6937 148.405 68.6135H141.838V70.3927H149.876ZM141.838 72.1077V73.8388H150.088V73.2939C150.088 72.8771 150.073 72.4764 150.058 72.0917H141.838V72.1077Z" fill="#4C4C4C"/>
<path d="M164.21 61.0493C165.428 61.0821 166.03 61.7555 166.03 63.0529C165.953 64.3011 165.428 65.615 164.441 66.9781C165.521 69.5566 166.122 71.7901 166.261 73.6953C166.261 75.8631 165.475 76.9471 163.902 76.9471H162.36V75.1734H163.794C164.349 75.1405 164.627 74.6971 164.627 73.8266C164.241 71.4453 163.584 69.1233 162.668 66.9124C163.239 66.3212 163.763 65.0894 164.241 63.25C164.241 62.9708 164.087 62.7901 163.763 62.7245H161.743V79H160V61.0493H164.21ZM171.844 61C172.939 61.0821 173.772 61.5748 174.358 62.4781C174.928 63.2336 175.221 64.2847 175.221 65.5821C175.19 67.0274 174.882 68.1277 174.311 68.8996C173.741 69.6715 172.954 70.0985 171.875 70.1478H171.481C171.664 70.7629 171.88 71.3661 172.129 71.9544C173.227 71.1494 174.502 70.6626 175.83 70.542V72.2993C174.799 72.442 173.809 72.8231 172.931 73.4161C173.734 74.655 174.781 75.692 176 76.4544V78.3923C172.885 77.188 170.793 74.4398 169.723 70.1478H168.567V75.5511C168.628 76.3066 168.983 76.7172 169.646 76.8157C170.593 76.8251 171.536 76.7036 172.453 76.4544V78.3595C171.697 78.5894 170.649 78.7044 169.292 78.7044C167.811 78.5566 166.978 77.5712 166.793 75.7646V61H171.844ZM168.59 62.7573V64.6953H173.355C173.17 63.5949 172.584 62.938 171.628 62.7573H168.59ZM173.278 66.4526H168.574V68.3741H171.227C172.337 68.2755 173.031 67.635 173.278 66.4526Z" fill="#4C4C4C"/>
<path d="M185.741 61H187.724C186.597 65.4363 184.689 68.6997 182 70.7904V68.1728C183.653 66.4561 184.907 64.0765 185.741 61ZM188.61 67.272H190.879L185.621 76.5014C185.621 76.7904 185.771 76.9263 186.056 76.9433H193.733C194.124 76.8754 194.319 76.5694 194.319 76.0595V73.085H196.242V76.9943C196.182 78.2011 195.506 78.881 194.229 79H184.208C183.623 78.966 183.217 78.5241 182.992 77.7082C183.007 77.3822 183.068 77.0609 183.172 76.7564L188.61 67.272ZM192.471 61.051C193.523 61.187 194.424 61.8159 195.176 62.9207C196.277 65.6402 197.219 68.2408 198 70.7224H195.792C195.116 68.4788 194.394 66.2351 193.628 63.9915C193.208 63.3286 192.712 63.0057 192.126 63.0057H188.31V61.068H192.471V61.051Z" fill="#4C4C4C"/>
<path d="M205 64.8946H217.416V66.9436H205V64.8946ZM205.283 61H215.955C217.071 61.0169 218.014 61.3217 218.768 61.9313C219.516 62.4826 220.096 63.2604 220.434 64.1665C220.811 65.4083 221 67.508 221 70.4657C221 72.3283 220.906 73.7168 220.733 74.6312C220.576 75.952 220.136 77.0188 219.397 77.8147C218.517 78.5767 217.605 78.9661 216.678 79C214.509 79 212.859 78.9492 211.727 78.8476V76.7987C212.796 76.9003 214.305 76.9511 216.269 76.9511C216.851 76.9172 217.385 76.6463 217.919 76.1722C218.399 75.6917 218.705 75.0438 218.784 74.3434C218.913 73.0045 218.979 71.6594 218.98 70.3133C218.98 67.9595 218.886 66.2324 218.682 65.1656C218.367 63.8617 217.377 63.1336 215.711 62.9812H205.259L205.283 61ZM213.519 68.5353C214.54 68.6538 215.31 69.0094 215.86 69.6359C216.442 70.1778 216.741 70.9398 216.756 71.9389C216.756 73.0564 216.489 73.8862 215.955 74.4619C215.655 74.8049 215.295 75.0803 214.896 75.2722C214.496 75.464 214.066 75.5685 213.629 75.5795H205.974V68.5353H213.519ZM207.876 73.683L213.079 73.666C214.257 73.6322 214.886 73.0395 214.949 71.9219C214.87 70.9737 214.367 70.4487 213.424 70.3133H207.876V73.683Z" fill="#4C4C4C"/>
<path d="M6.57215 95L4.11692 90.7659H2.28856V95H1V85H4.16915C6.22388 85 7.70399 85.7229 7.70399 87.8055C7.70399 89.3546 6.7985 90.284 5.40547 90.611L8 94.9828L6.57215 95ZM2.28856 89.7332H3.97761C5.56219 89.7332 6.43283 89.1136 6.43283 87.8055C6.43283 86.4974 5.56219 86.0155 3.97761 86.0155H2.28856V89.7332Z" fill="#7A7A7A"/>
<path d="M9 91.5155C9 89.3628 10.2877 88 11.6575 88C13.1507 88 14 89.2235 14 91.1283C13.9962 91.3406 13.9825 91.5526 13.9589 91.7633H9.98629C10.0548 93.188 10.8219 94.1018 11.9452 94.1018C12.4742 94.1003 12.9903 93.9166 13.4246 93.5752L13.7808 94.3186C13.2036 94.764 12.5207 95.0015 11.8219 95C10.2603 95 9 93.7146 9 91.5155ZM13.137 90.9734C13.137 89.6261 12.589 88.8982 11.6712 88.8982C10.8356 88.8982 10.0959 89.6571 9.9726 90.9734H13.137Z" fill="#7A7A7A"/>
<path d="M17 88H18.148L19.3878 91.9884C19.5867 92.6721 19.801 93.3884 20 94.0558H20.0459C20.2449 93.4046 20.4592 92.6721 20.6582 91.9884L21.9133 88H23L20.6582 95H19.3725L17 88Z" fill="#7A7A7A"/>
<path d="M24 85.7667C24 85.2936 24.63 85 25.5 85C26.37 85 27 85.2773 27 85.7667C27 85.8716 26.9604 85.9753 26.8838 86.0716C26.8073 86.1679 26.6953 86.2546 26.5548 86.3264C26.4142 86.3982 26.2481 86.4536 26.0667 86.4893C25.8853 86.5249 25.6925 86.5399 25.5 86.5334C25.3081 86.5385 25.1163 86.5225 24.936 86.4864C24.7558 86.4502 24.5907 86.3947 24.4507 86.3232C24.3108 86.2516 24.1987 86.1655 24.1213 86.0699C24.0438 85.9743 24.0026 85.8712 24 85.7667ZM24.42 87.9853H26.58V95H24.42V87.9853Z" fill="#7A7A7A"/>
<path d="M28 88H29.148L30.3878 91.9884C30.5867 92.6721 30.801 93.3884 31 94.0558H31.0459C31.2449 93.4046 31.4592 92.6721 31.6582 91.9884L32.9133 88H34L31.6582 95H30.3725L28 88Z" fill="#7A7A7A"/>
<path d="M36 93.1106C36 91.6549 37.2166 90.9425 39.9318 90.6173C39.9318 89.7655 39.6647 88.9292 38.6113 88.9292C37.8694 88.9292 37.2018 89.2854 36.6973 89.6416L36.2671 88.8673C36.8605 88.4801 37.7656 88 38.7893 88C40.3472 88 41 89.0996 41 90.7412V94.8451H40.1246L40.0356 94.0398H40.0059C39.3976 94.5664 38.6706 95 37.8843 95C36.8086 95 36 94.3186 36 93.1106ZM39.9318 93.219V91.3606C37.7804 91.6239 37.0534 92.1814 37.0534 93.0487C37.0534 93.8075 37.543 94.1173 38.181 94.1173C38.819 94.1173 39.3086 93.8075 39.9318 93.219Z" fill="#7A7A7A"/>
<path d="M42 93.3654V84H43.8305V93.4513C43.8305 93.8294 44.0847 93.984 44.3644 93.984C44.4934 93.9857 44.622 93.9741 44.7458 93.9496L45 94.8948C44.6569 94.9743 44.2946 95.0093 43.9322 94.9979C42.572 94.9979 42 94.4136 42 93.3654Z" fill="#7A7A7A"/>
<path d="M51 93.5572L51.7681 92.728C52.129 93.0951 52.5636 93.3898 53.0463 93.5948C53.529 93.7999 54.05 93.9111 54.5786 93.9221C55.9052 93.9221 56.7082 93.2919 56.7082 92.3466C56.7082 91.3682 55.9751 91.0531 55.015 90.6385L53.5486 90.0415C52.606 89.6601 51.4888 88.9801 51.4888 87.5705C51.4888 86.078 52.8504 85 54.6833 85C55.2399 84.9975 55.7913 85.102 56.3043 85.3072C56.8173 85.5124 57.2812 85.8141 57.6683 86.1941L56.9875 86.9735C56.3591 86.4262 55.6259 86.0614 54.6833 86.0614C53.5312 86.0614 52.7805 86.6087 52.7805 87.4876C52.7805 88.4163 53.6708 88.7811 54.4563 89.0962L55.9052 89.6932C57.0748 90.1742 58 90.8375 58 92.2637C58 93.7894 56.6733 95 54.5611 95C53.8958 95.0001 53.2373 94.8723 52.6253 94.6243C52.0134 94.3764 51.4605 94.0134 51 93.5572Z" fill="#7A7A7A"/>
<path d="M60 88.1742H60.8955L60.9865 89.1719H61.0169C61.5784 88.5226 62.2614 88 63.0506 88C64.0523 88 64.5835 88.5068 64.8567 89.2986C65.5245 88.5385 66.2226 88 67.0118 88C68.3626 88 69 88.9344 69 90.6765V95H67.9224V90.8348C67.9224 89.552 67.543 89.0136 66.7083 89.0136C66.2074 89.0136 65.6762 89.3462 65.054 90.0588V95H63.9612V90.8348C63.9612 89.552 63.5818 89.0136 62.747 89.0136C62.2614 89.0136 61.6998 89.3462 61.0927 90.0588V95H60V88.1742Z" fill="#7A7A7A"/>
<path d="M72 93.1106C72 91.6549 73.4599 90.9425 76.7181 90.6173C76.7181 89.7655 76.3976 88.9292 75.1335 88.9292C74.2433 88.9292 73.4421 89.2854 72.8368 89.6416L72.3205 88.8673C73.0326 88.4801 74.1187 88 75.3472 88C77.2166 88 78 89.0996 78 90.7412V94.8451H76.9317L76.8249 94.0398H76.7893C76.0594 94.5664 75.1869 95 74.2433 95C72.9614 95 72 94.3186 72 93.1106ZM76.7181 93.219V91.3606C74.1365 91.6239 73.2641 92.1814 73.2641 93.0487C73.2641 93.8075 73.8516 94.1173 74.6172 94.1173C75.3828 94.1173 75.9703 93.8075 76.7181 93.219Z" fill="#7A7A7A"/>
<path d="M81.0127 88.193H81.7627L81.839 89.4278H81.8644C82.2458 88.5571 82.8051 88.0031 83.4153 88.0031C83.6183 87.9859 83.821 88.0408 84 88.1614L83.8348 89.1587C83.6658 89.0721 83.4832 89.0342 83.3008 89.0479C82.8432 89.0479 82.2839 89.4436 81.9152 90.6151V95H81V88.193H81.0127Z" fill="#7A7A7A"/>
<path d="M86.9606 92.451V88.1907H86V87.2103L87.0056 87.139L87.1407 85H88.0413V87.139H89.8049V88.1907H88.0488V92.4688C88.0488 93.4135 88.3039 93.9483 89.0544 93.9483C89.3065 93.9276 89.5545 93.8615 89.7899 93.7522L90 94.7148C89.6189 94.8796 89.2193 94.9757 88.8143 95C87.4259 95 86.9606 93.984 86.9606 92.451Z" fill="#7A7A7A"/>
<path d="M95 85H96V95H95V85Z" fill="#7A7A7A"/>
<path d="M100.017 88.1742H101.047L101.151 89.1561H101.186C101.901 88.5226 102.686 88 103.698 88C105.267 88 106 88.9344 106 90.6765V95H104.744V90.8348C104.744 89.552 104.308 89.0136 103.314 89.0136C102.546 89.0136 102.023 89.362 101.256 90.0588V95H100L100.017 88.1742Z" fill="#7A7A7A"/>
<path d="M107.962 92.451V88.1907H107V87.2103L108.008 87.139L108.143 85H109.045V87.139H110.805V88.1907H109.045V92.4688C109.045 93.4135 109.301 93.9483 110.053 93.9483C110.305 93.9276 110.554 93.8615 110.789 93.7522L111 94.7148C110.618 94.8796 110.218 94.9757 109.812 95C108.429 95 107.962 93.984 107.962 92.451Z" fill="#7A7A7A"/>
<path d="M111 91.5155C111 89.3628 112.803 88 114.721 88C116.811 88 118 89.2235 118 91.1283C117.995 91.3406 117.976 91.5526 117.942 91.7633H112.381C112.477 93.188 113.551 94.1018 115.123 94.1018C115.864 94.1003 116.586 93.9166 117.194 93.5752L117.693 94.3186C116.885 94.764 115.929 95.0015 114.951 95C112.764 95 111 93.7146 111 91.5155ZM116.792 90.9734C116.792 89.6261 116.025 88.8982 114.74 88.8982C113.57 88.8982 112.534 89.6571 112.362 90.9734H116.792Z" fill="#7A7A7A"/>
<path d="M120 96.1875C120 95.625 120.425 95.0781 121.134 94.6719V94.625C120.91 94.5168 120.725 94.3555 120.6 94.1595C120.475 93.9635 120.414 93.7404 120.425 93.5156C120.425 92.9531 120.886 92.5156 121.276 92.2656V92.2188C120.968 92.0011 120.718 91.7254 120.547 91.4117C120.375 91.0981 120.285 90.7545 120.284 90.4062C120.284 88.9375 121.613 88 123.154 88C123.517 88.0062 123.876 88.0642 124.218 88.1719H126.876V89.0313H125.316C125.52 89.2146 125.68 89.4322 125.787 89.6711C125.893 89.91 125.944 90.1653 125.937 90.4219C125.937 91.8594 124.696 92.7656 123.154 92.7656C122.762 92.7585 122.375 92.6786 122.02 92.5312C121.869 92.6214 121.745 92.7424 121.659 92.8838C121.573 93.0253 121.526 93.1831 121.524 93.3438C121.524 93.7813 121.825 94.0781 122.853 94.0781H124.342C126.114 94.0781 127 94.5781 127 95.6719C127 96.9219 125.511 98 123.154 98C121.294 97.9844 120 97.3437 120 96.1875ZM125.777 95.8281C125.777 95.2031 125.228 95 124.218 95H122.906C122.578 94.9993 122.25 94.9625 121.932 94.8906C121.382 95.2344 121.152 95.6406 121.152 96.0312C121.152 96.75 121.985 97.2188 123.367 97.2188C124.803 97.2188 125.777 96.5469 125.777 95.8281ZM124.785 90.3906C124.785 89.4062 124.076 88.8125 123.172 88.8125C122.268 88.8125 121.542 89.3906 121.542 90.3906C121.542 91.3906 122.295 91.9844 123.181 91.9844C124.067 91.9844 124.785 91.375 124.785 90.3906Z" fill="#7A7A7A"/>
<path d="M128.021 88.193H129.271L129.398 89.4278H129.441C130.076 88.5571 131.008 88.0031 132.025 88.0031C132.364 87.9859 132.702 88.0408 133 88.1614L132.725 89.1587C132.443 89.0721 132.139 89.0342 131.835 89.0479C131.072 89.0479 130.14 89.4436 129.525 90.6151V95H128V88.193H128.021Z" fill="#7A7A7A"/>
<path d="M133 93.1106C133 91.6549 134.46 90.9425 137.718 90.6173C137.718 89.7655 137.398 88.9292 136.134 88.9292C135.243 88.9292 134.442 89.2854 133.837 89.6416L133.32 88.8673C134.033 88.4801 135.119 88 136.347 88C138.217 88 139 89.0996 139 90.7412V94.8451H137.95L137.843 94.0398H137.807C137.077 94.5664 136.205 95 135.261 95C133.961 95 133 94.3186 133 93.1106ZM137.718 93.219V91.3606C135.137 91.6239 134.264 92.1814 134.264 93.0487C134.264 93.8075 134.852 94.1173 135.617 94.1173C136.383 94.1173 136.97 93.8075 137.727 93.219H137.718Z" fill="#7A7A7A"/>
<path d="M142.203 92.451V88.1907H141V87.2103L142.259 87.139L142.429 85H143.556V87.139H145.756V88.1907H143.556V92.4688C143.556 93.4135 143.876 93.9483 144.816 93.9483C145.132 93.9276 145.442 93.8615 145.737 93.7522L146 94.7148C145.523 94.8796 145.022 94.9757 144.515 95C142.786 95 142.203 93.984 142.203 92.451Z" fill="#7A7A7A"/>
<path d="M147 85.7667C147 85.2936 147.42 85 148 85C148.58 85 149 85.2773 149 85.7667C149 85.983 148.895 86.1905 148.707 86.3435C148.52 86.4964 148.265 86.5824 148 86.5824C147.735 86.5824 147.48 86.4964 147.293 86.3435C147.105 86.1905 147 85.983 147 85.7667ZM147.26 87.9853H148.7V95H147.26V87.9853Z" fill="#7A7A7A"/>
<path d="M151 91.5155C151 89.3009 152.41 88 154 88C155.59 88 157 89.2854 157 91.5155C157 93.7456 155.59 95 154 95C152.41 95 151 93.7301 151 91.5155ZM155.875 91.5155C155.875 89.9823 155.11 88.9447 154 88.9447C152.89 88.9447 152.14 89.9823 152.14 91.5155C152.14 93.0487 152.89 94.0708 154 94.0708C155.11 94.0708 155.875 93.0487 155.875 91.5155Z" fill="#7A7A7A"/>
<path d="M160.017 88.1742H161.047L161.151 89.1561H161.186C161.901 88.5226 162.686 88 163.698 88C165.267 88 166 88.9344 166 90.6765V95H164.744V90.8348C164.744 89.552 164.308 89.0136 163.314 89.0136C162.547 89.0136 162.006 89.362 161.256 90.0588V95H160L160.017 88.1742Z" fill="#7A7A7A"/>
<path d="M171 90.008C171 86.8905 173.042 85 175.789 85C176.347 85.0022 176.899 85.1096 177.407 85.3154C177.916 85.5211 178.37 85.8205 178.74 86.194L177.998 86.9899C177.722 86.7072 177.383 86.4797 177.003 86.3225C176.622 86.1653 176.208 86.082 175.789 86.0779C173.747 86.0779 172.392 87.5704 172.392 89.9749C172.392 92.4126 173.691 93.9382 175.752 93.9382C176.773 93.9382 177.552 93.5236 178.258 92.8603L179 93.6231C178.602 94.0612 178.098 94.4128 177.525 94.6512C176.953 94.8897 176.328 95.0088 175.696 94.9995C173.005 94.9829 171 93.1422 171 90.008Z" fill="#7A7A7A"/>
<path d="M180 91.5155C180 89.3009 181.645 88 183.5 88C185.355 88 187 89.2854 187 91.5155C187 93.7456 185.355 95 183.5 95C181.645 95 180 93.7301 180 91.5155ZM185.688 91.5155C185.688 89.9823 184.795 88.9447 183.5 88.9447C182.205 88.9447 181.33 89.9823 181.33 91.5155C181.33 93.0487 182.205 94.0708 183.5 94.0708C184.795 94.0708 185.688 93.0487 185.688 91.5155Z" fill="#7A7A7A"/>
<path d="M188.001 94.0093C187.994 93.8817 188.024 93.7543 188.09 93.6345C188.157 93.5147 188.258 93.4049 188.388 93.3113C188.519 93.2177 188.676 93.1422 188.85 93.0891C189.024 93.0361 189.212 93.0065 189.404 93.0021C189.703 92.9891 190.001 93.0364 190.26 93.1378C190.519 93.2392 190.726 93.39 190.855 93.5708C190.984 93.7516 191.028 93.954 190.983 94.1518C190.937 94.3496 190.804 94.5338 190.599 94.6805C190.395 94.8271 190.13 94.9295 189.837 94.9745C189.545 95.0194 189.239 95.0048 188.959 94.9325C188.679 94.8602 188.438 94.7336 188.267 94.569C188.097 94.4044 188.004 94.2094 188.001 94.0093Z" fill="#7A7A7A"/>
<path d="M193 96.3175C193.368 95.9841 193.586 95.381 193.594 94.6032C193.572 94.6163 193.549 94.6216 193.526 94.619C193.316 94.619 193.128 94.3492 193.128 93.8095C193.128 93.3175 193.316 93 193.541 93C193.827 93 194 93.5079 194 94.3651C194 95.5714 193.669 96.5238 193.128 97L193 96.3175Z" fill="#7A7A7A"/>
<path d="M201 85H202.352V93.9157H207V95H201.027V85H201Z" fill="#7A7A7A"/>
<path d="M208.201 92.451V88.1907H207V87.2103L208.257 87.139L208.426 85H209.552V87.139H211.747V88.1907H209.561V92.4688C209.561 93.4135 209.88 93.9483 210.818 93.9483C211.133 93.9276 211.443 93.8615 211.737 93.7522L212 94.7148C211.524 94.8796 211.024 94.9757 210.518 95C208.782 95 208.201 93.984 208.201 92.451Z" fill="#7A7A7A"/>
<path d="M214 91.1388C214 88.7535 215.408 87.2434 216.976 87.2434C217.792 87.2434 218.304 87.5694 218.912 88.1186L218.848 86.8487V84H220V94.8284H219.056L218.944 93.9532H218.912C218.368 94.5195 217.648 95 216.816 95C215.104 95 214 93.61 214 91.1388ZM218.848 92.9579V89.0796C218.272 88.5304 217.744 88.3073 217.168 88.3073C216.048 88.3073 215.184 89.4571 215.184 91.1388C215.184 92.9236 215.872 93.9875 217.088 93.9875C217.728 93.9704 218.272 93.6271 218.848 92.9579Z" fill="#7A7A7A"/>
<path d="M98.597 12.9314L87.7742 38.6436L77.0028 12.9314H68.0518L81.9117 46.0297C83.2634 49.2527 86.368 51.3457 89.8033 51.3457H91.46L107.548 12.9314H98.597Z" fill="#1A6A89"/>
<path d="M152.54 12.9314L141.718 38.6436L130.946 12.9314H121.995L135.804 45.9052C137.184 49.2036 140.363 51.3424 143.878 51.3424H145.403L161.491 12.9314H152.54Z" fill="#1A6A89"/>
<path d="M177.516 19.2137C176.672 17.0159 175.789 15.5157 174.826 14.6379C173.609 13.5046 171.856 12.9314 169.615 12.9314H165.509C165.133 12.9314 164.793 13.164 164.651 13.521L152.808 43.5403C151.334 47.2743 154.028 51.3457 157.973 51.3457C158.349 51.3457 158.689 51.1131 158.827 50.7561L161.627 43.691C161.768 43.334 162.105 43.1014 162.481 43.1014H177.824C178.197 43.1014 178.534 43.3307 178.675 43.6812L181.574 50.766C181.719 51.1164 182.053 51.3457 182.425 51.3457H189.369C190.031 51.3457 190.477 50.6611 190.22 50.0388L177.516 19.2137ZM165.743 33.2096L169.133 24.5297C169.438 23.7469 170.52 23.7371 170.841 24.5133L174.431 33.1932C174.688 33.8123 174.241 34.5001 173.58 34.5001H166.6C165.945 34.5001 165.499 33.8287 165.743 33.2096Z" fill="#1A6A89"/>
<path d="M206.668 42.8001C204.193 42.8001 202.478 42.2662 201.573 41.2082C200.793 40.2321 200.382 38.4143 200.382 35.9512V12.9314H192.233V36.5702C192.233 41.2705 193.299 44.8865 195.415 47.33C197.778 49.9929 201.566 51.3457 206.671 51.3457H221V42.8001H206.668Z" fill="#1A6A89"/>
<path d="M64.5634 12.9314H35.4243V21.4082H64.5634V12.9314Z" fill="#1A6A89"/>
<path d="M63.389 35.8333V27.3826H43.5766V27.3531H35.4282V34.5886C35.4282 35.0111 35.4346 35.4238 35.4443 35.83H63.389V35.8333Z" fill="#1A6A89"/>
<path d="M36.394 42.8066C36.943 44.6933 37.7264 46.2262 38.757 47.4283C41.014 50.0257 44.9117 51.3424 50.3439 51.3424H64.5667V42.8066H36.394Z" fill="#1A6A89"/>
<path d="M26.3844 35.3616C30.0509 33.3177 31.9772 29.7835 31.9772 25.0505C31.9772 20.5435 30.3141 17.1927 27.0201 15.0834C24.7502 13.6553 22.1015 12.9314 19.1478 12.9314H0V21.4082H8.66852V21.4181H19.1478C23.2252 21.4181 23.7742 23.2556 23.7742 25.0505C23.7742 26.8192 23.2252 28.6273 19.1478 28.6273H8.1484V28.588H0V43.0294C0 47.6215 3.6472 51.3424 8.1484 51.3424V37.1139H18.2392L24.1306 51.3424H33.088L26.3844 35.3616Z" fill="#1A6A89"/>
<path d="M118.489 0L110.408 5.4405V12.1453L118.489 6.70809V0Z" fill="#FFA81D"/>
<path d="M110.349 12.8071V43.8123C110.349 47.7756 113.56 50.9855 117.518 50.9855H118.607V12.8071H110.349Z" fill="#1A6A89"/>
</svg>
