<svg id="buildSvg" xmlns="http://www.w3.org/2000/svg" viewBox="0 0 308.25 309.42"><title>build</title><path id="return2" d="M70.94,47.53l-6.78,2.31a32.4,32.4,0,0,0-5.75-5.06l1.45-7a2.58,2.58,0,0,0-1.69-3l-10-3.41a2.58,2.58,0,0,0-3.15,1.31l-3.16,6.44a32.22,32.22,0,0,0-7.64.47l-3.94-6a2.6,2.6,0,0,0-3.3-.9l-9.44,4.63a2.58,2.58,0,0,0-1.31,3.15l2.32,6.78A32.4,32.4,0,0,0,13.54,53l-7-1.45a2.58,2.58,0,0,0-3,1.69l-3.41,10a2.59,2.59,0,0,0,1.31,3.16l6.44,3.16a31.74,31.74,0,0,0,.47,7.64l-6,3.94a2.57,2.57,0,0,0-.9,3.29l4.62,9.44a2.59,2.59,0,0,0,3.16,1.31L16,92.84a32.34,32.34,0,0,0,5.75,5l-1.45,7a2.58,2.58,0,0,0,1.69,3l10,3.41A2.58,2.58,0,0,0,35.12,110l3.16-6.44a32.31,32.31,0,0,0,7.65-.48l3.94,6a2.56,2.56,0,0,0,3.29.9l9.44-4.62a2.58,2.58,0,0,0,1.31-3.15L61.59,95.4a31.71,31.71,0,0,0,5.06-5.75l7,1.46a2.6,2.6,0,0,0,3-1.7l3.4-9.94a2.6,2.6,0,0,0-1.3-3.16L72.3,73.15a31.71,31.71,0,0,0-.47-7.64l6-3.94a2.58,2.58,0,0,0,.9-3.29L74.1,48.83A2.59,2.59,0,0,0,70.94,47.53ZM47.86,87.19A17.65,17.65,0,1,1,56,63.57,17.66,17.66,0,0,1,47.86,87.19Z" style="fill:#315d87"/><path d="M36.76,5.12H56.32a6.11,6.11,0,0,1,6.11,6.11V203a0,0,0,0,1,0,0H30.65a0,0,0,0,1,0,0V11.23A6.11,6.11,0,0,1,36.76,5.12Z" style="fill:#13abc4"/><path d="M20.48,203H72.6a2.55,2.55,0,0,1,2.55,2.55h0a2.55,2.55,0,0,1-2.55,2.55H20.48a2.55,2.55,0,0,1-2.55-2.55h0A2.55,2.55,0,0,1,20.48,203Z" style="fill:#315d87"/><path id="return1" d="M301.2,39.7l-10.87.61A48.55,48.55,0,0,0,284,30.56l5-9.69a3.92,3.92,0,0,0-1.26-5l-13.15-9a3.91,3.91,0,0,0-5.15.62l-7.26,8.13a48.89,48.89,0,0,0-11.38-2.44L247.48,2.73A3.92,3.92,0,0,0,243,.07L227.33,3a3.93,3.93,0,0,0-3.21,4.08l.62,10.87A48.27,48.27,0,0,0,215,24.25l-9.69-5a3.93,3.93,0,0,0-5,1.27l-9.05,13.15a3.92,3.92,0,0,0,.61,5.15L200,46.08a48.88,48.88,0,0,0-2.43,11.38l-10.37,3.31a3.92,3.92,0,0,0-2.67,4.45l2.9,15.7a3.92,3.92,0,0,0,4.08,3.2l10.87-.61a48.75,48.75,0,0,0,6.34,9.75l-5,9.69a3.94,3.94,0,0,0,1.26,5l13.16,9a3.92,3.92,0,0,0,5.15-.62l7.26-8.13a48.3,48.3,0,0,0,11.37,2.44l3.31,10.37a3.93,3.93,0,0,0,4.45,2.67l15.71-2.9a3.93,3.93,0,0,0,3.2-4.08l-.61-10.87a49,49,0,0,0,9.75-6.34l9.69,5a3.94,3.94,0,0,0,5-1.26l9-13.16a3.93,3.93,0,0,0-.62-5.15l-8.13-7.26a48.92,48.92,0,0,0,2.44-11.37l10.37-3.31a3.92,3.92,0,0,0,2.66-4.45l-2.9-15.71A3.92,3.92,0,0,0,301.2,39.7ZM251.86,91.82a30.41,30.41,0,1,1,24.38-35.43A30.45,30.45,0,0,1,251.86,91.82Z" style="fill:#315d87"/><rect x="51.19" y="76.99" width="211.36" height="130.49" rx="5.82" style="fill:#3bd2e2"/><rect x="100.63" y="45.56" width="112.49" height="193.37" transform="translate(299.11 -14.63) rotate(90)" style="fill:#d7f9f2"/><rect x="172.24" y="138.39" width="66.78" height="35.26" style="fill:#315d87"/><path d="M283.51,257.19l-2.49.37v4.31a5.71,5.71,0,0,1-3.34,1.07H36.06a5.73,5.73,0,0,1-3.34-1.07v-4l-2.49-.7v5.95h0a5.83,5.83,0,0,0,5.82,5.8H277.68a5.83,5.83,0,0,0,5.82-6.12h0Z" style="fill:#315d87"/><path d="M277.68,262.94H36.06a5.82,5.82,0,0,1-5.34-8.14l19-43.81A5.82,5.82,0,0,1,55,207.48H258.73a5.82,5.82,0,0,1,5.34,3.51l19,43.81A5.83,5.83,0,0,1,277.68,262.94Z" style="fill:#13abc4"/><polygon points="86.49 213.24 64.03 213.24 61.59 219.19 84.19 219.19 86.49 213.24" style="fill:#315d87"/><polygon points="79.15 232.19 56.27 232.19 53 240.19 76.06 240.19 79.15 232.19" style="fill:#315d87"/><polygon points="83.02 222.19 60.37 222.19 57.5 229.19 80.31 229.19 83.02 222.19" style="fill:#315d87"/><polygon points="51.77 243.19 48.22 251.89 71.53 251.89 74.9 243.19 51.77 243.19" style="fill:#315d87"/><polygon points="108.8 243.19 106.83 251.89 205.88 251.89 203.91 243.19 108.8 243.19" style="fill:#315d87"/><polygon points="78.11 243.19 74.74 251.89 103.76 251.89 105.72 243.19 78.11 243.19" style="fill:#315d87"/><polygon points="232.4 229.19 255.61 229.19 252.56 222.19 229.69 222.19 232.4 229.19" style="fill:#315d87"/><polygon points="251.25 219.19 248.64 213.24 226.22 213.24 228.53 219.19 251.25 219.19" style="fill:#315d87"/><polygon points="206.99 243.19 208.96 251.89 237.97 251.89 234.6 243.19 206.99 243.19" style="fill:#315d87"/><polygon points="225.31 219.19 223 213.24 200.22 213.24 201.56 219.19 225.31 219.19" style="fill:#315d87"/><polygon points="169.88 219.19 169.5 213.24 144.76 213.24 144.01 219.19 169.88 219.19" style="fill:#315d87"/><polygon points="198.49 219.19 197.14 213.24 172.51 213.24 172.88 219.19 198.49 219.19" style="fill:#315d87"/><polygon points="140.99 219.19 141.74 213.24 115.57 213.24 114.22 219.19 140.99 219.19" style="fill:#315d87"/><polygon points="111.15 219.19 112.49 213.24 89.71 213.24 87.4 219.19 111.15 219.19" style="fill:#315d87"/><polygon points="173.7 232.19 174.2 240.19 203.24 240.19 201.43 232.19 173.7 232.19" style="fill:#315d87"/><polygon points="199.17 222.19 173.07 222.19 173.51 229.19 200.75 229.19 199.17 222.19" style="fill:#315d87"/><polygon points="226.47 222.19 202.24 222.19 203.82 229.19 229.18 229.19 226.47 222.19" style="fill:#315d87"/><polygon points="233.56 232.19 236.65 240.19 260.42 240.19 256.92 232.19 233.56 232.19" style="fill:#315d87"/><polygon points="142.38 232.19 141.38 240.19 171.19 240.19 170.69 232.19 142.38 232.19" style="fill:#315d87"/><polygon points="204.5 232.19 206.31 240.19 233.44 240.19 230.34 232.19 204.5 232.19" style="fill:#315d87"/><polygon points="241.18 251.89 265.53 251.89 261.73 243.19 237.81 243.19 241.18 251.89" style="fill:#315d87"/><polygon points="86.24 222.19 83.53 229.19 108.89 229.19 110.47 222.19 86.24 222.19" style="fill:#315d87"/><polygon points="109.47 240.19 138.35 240.19 139.36 232.19 111.28 232.19 109.47 240.19" style="fill:#315d87"/><polygon points="79.27 240.19 106.4 240.19 108.21 232.19 82.37 232.19 79.27 240.19" style="fill:#315d87"/><polygon points="111.96 229.19 139.73 229.19 140.61 222.19 113.54 222.19 111.96 229.19" style="fill:#315d87"/><polygon points="170.06 222.19 143.64 222.19 142.76 229.19 170.5 229.19 170.06 222.19" style="fill:#315d87"/><path d="M208.16,189.07H105.59a2.46,2.46,0,0,1-2.46-2.46h0a2.46,2.46,0,0,1,2.46-2.46H208.16a2.46,2.46,0,0,1,2.45,2.46h0A2.46,2.46,0,0,1,208.16,189.07Z" style="fill:#fff"/><path d="M105.59,184.15a2.46,2.46,0,0,0,0,4.92h39.1v-4.92Z" style="fill:#3bd2e2"/><g id="returnbuild"><path d="M125.63,108.44l-16.4-82.95a10.77,10.77,0,0,1-1.66,2l15.7,79.35-25.08,4.27-7-80.2-2,.12,7.21,82.41Z" style="fill:#315d87"/><rect x="61.69" y="101.09" width="108.67" height="49.77" transform="translate(-18.41 19.87) rotate(-9.07)" style="fill:#13abc4"/><text transform="translate(80.09 142.13) rotate(-8.26)" style="font-size:25.937522888183594px;fill:#fff;font-family:BerlinSansFBDemi-Bold, Berlin Sans FB Demi;font-weight:700">BUILD</text></g><path d="M114,15.23l-51.54-3v27.1l51.54-3a10.56,10.56,0,0,0,0-21.08Z" style="fill:#3bd2e2"/><path d="M110.73,309.42H46.53a1.86,1.86,0,0,1-1.8-2.32l2.46-9.72A1.87,1.87,0,0,1,49,296h59.26a1.87,1.87,0,0,1,1.81,1.4l2.46,9.72A1.86,1.86,0,0,1,110.73,309.42Z" style="fill:#e27703"/><path d="M101.51,302.42a116.9,116.9,0,0,1-45.75,0l20.46-50.08a2.6,2.6,0,0,1,4.82,0Z" style="fill:#f69314"/><path d="M78.63,284.27a121,121,0,0,1-15-1l-4.25,10.38a122.08,122.08,0,0,0,19.3,1.6,122,122,0,0,0,19.3-1.6l-4.24-10.38A121.32,121.32,0,0,1,78.63,284.27Z" style="fill:#fff"/><path d="M78.63,261.85c-2.16,0-4.24-.06-6.22-.17L68,272.35c3.17.29,6.77.5,10.59.5s7.42-.21,10.59-.5l-4.36-10.67C82.88,261.79,80.79,261.85,78.63,261.85Z" style="fill:#fff"/></svg>